<svg id="svg" version="1.1" xmlns="http://www.w3.org/2000/svg" xmlns:xlink="http://www.w3.org/1999/xlink" width="400" height="158.6206896551724" viewBox="0, 0, 400,158.6206896551724"><g id="svgg"><path id="path0" d="M72.833 20.510 C 72.833 20.607,72.740 20.630,72.625 20.561 C 72.461 20.463,72.459 20.489,72.618 20.685 C 72.853 20.975,73.144 20.946,69.456 20.995 C 67.060 21.027,66.814 21.058,66.659 21.348 C 66.505 21.634,66.287 21.667,64.494 21.667 C 63.202 21.667,62.500 21.729,62.500 21.843 C 62.500 21.940,62.406 21.963,62.292 21.895 C 62.129 21.797,62.127 21.823,62.280 22.013 C 62.448 22.220,62.315 22.262,61.363 22.296 C 59.523 22.363,59.000 22.485,59.000 22.848 C 59.000 23.137,58.867 23.167,57.583 23.167 C 56.278 23.167,56.167 23.193,56.167 23.500 C 56.167 23.806,56.056 23.833,54.833 23.833 C 53.611 23.833,53.500 23.861,53.500 24.167 C 53.500 24.464,53.389 24.500,52.484 24.500 C 51.609 24.500,51.457 24.546,51.382 24.833 C 51.307 25.119,51.154 25.167,50.314 25.167 C 49.444 25.167,49.333 25.204,49.333 25.500 C 49.333 25.789,49.222 25.833,48.500 25.833 C 48.025 25.833,47.667 25.909,47.667 26.010 C 47.667 26.107,47.590 26.139,47.496 26.081 C 47.402 26.023,47.346 26.075,47.371 26.196 C 47.402 26.347,47.186 26.433,46.690 26.469 C 46.137 26.508,45.943 26.598,45.879 26.844 C 45.816 27.085,45.648 27.167,45.215 27.167 C 44.783 27.167,44.614 27.248,44.551 27.488 C 44.494 27.708,44.263 27.844,43.817 27.919 C 43.326 28.002,43.167 28.107,43.167 28.348 C 43.167 28.608,43.046 28.667,42.511 28.667 C 42.002 28.667,41.832 28.741,41.750 29.000 C 41.692 29.183,41.530 29.333,41.390 29.333 C 41.250 29.333,41.096 29.483,41.048 29.667 C 40.980 29.928,40.821 30.000,40.314 30.000 C 39.778 30.000,39.667 30.057,39.667 30.333 C 39.667 30.556,39.556 30.667,39.333 30.667 C 39.111 30.667,39.000 30.778,39.000 31.000 C 39.000 31.278,38.889 31.333,38.333 31.333 C 37.778 31.333,37.667 31.389,37.667 31.667 C 37.667 31.894,37.556 32.000,37.318 32.000 C 37.115 32.000,36.934 32.133,36.886 32.318 C 36.840 32.493,36.659 32.673,36.485 32.719 C 36.300 32.767,36.167 32.948,36.167 33.151 C 36.167 33.389,36.061 33.500,35.833 33.500 C 35.611 33.500,35.500 33.611,35.500 33.833 C 35.500 34.056,35.389 34.167,35.167 34.167 C 34.944 34.167,34.833 34.278,34.833 34.500 C 34.833 34.722,34.722 34.833,34.500 34.833 C 34.278 34.833,34.167 34.944,34.167 35.167 C 34.167 35.389,34.056 35.500,33.833 35.500 C 33.611 35.500,33.500 35.611,33.500 35.833 C 33.500 36.056,33.389 36.167,33.167 36.167 C 32.948 36.167,32.833 36.278,32.833 36.489 C 32.833 36.666,32.689 36.857,32.513 36.912 C 32.299 36.980,32.157 37.232,32.082 37.674 C 31.998 38.173,31.893 38.333,31.652 38.333 C 31.426 38.333,31.333 38.451,31.333 38.736 C 31.333 39.312,31.168 39.667,30.899 39.667 C 30.739 39.667,30.667 39.875,30.667 40.333 C 30.667 40.889,30.611 41.000,30.333 41.000 C 30.034 41.000,30.000 41.111,30.000 42.083 C 30.000 43.056,29.966 43.167,29.667 43.167 C 29.343 43.167,29.333 43.278,29.333 46.917 C 29.333 50.556,29.343 50.667,29.667 50.667 C 29.981 50.667,30.159 51.867,30.009 52.971 C 29.993 53.093,30.134 53.233,30.323 53.282 C 30.597 53.354,30.667 53.506,30.667 54.035 C 30.667 54.558,30.737 54.716,31.000 54.785 C 31.212 54.840,31.333 55.012,31.333 55.256 C 31.333 55.800,31.500 56.167,31.748 56.167 C 31.865 56.167,32.000 56.317,32.048 56.500 C 32.100 56.699,32.276 56.833,32.484 56.833 C 32.740 56.833,32.839 56.945,32.854 57.250 C 32.893 58.022,32.916 58.083,33.167 58.083 C 33.304 58.083,33.441 58.252,33.470 58.458 C 33.504 58.699,33.638 58.833,33.845 58.833 C 34.077 58.833,34.167 58.949,34.167 59.250 C 34.167 59.556,34.256 59.667,34.500 59.667 C 34.722 59.667,34.833 59.778,34.833 60.000 C 34.833 60.222,34.944 60.333,35.167 60.333 C 35.389 60.333,35.500 60.444,35.500 60.667 C 35.500 60.889,35.611 61.000,35.833 61.000 C 36.056 61.000,36.167 61.111,36.167 61.333 C 36.167 61.574,36.278 61.667,36.565 61.667 C 36.842 61.667,36.956 61.755,36.940 61.958 C 36.925 62.143,37.054 62.269,37.292 62.303 C 37.533 62.337,37.667 62.472,37.667 62.678 C 37.667 62.987,37.831 63.046,38.694 63.046 C 38.876 63.046,38.951 63.154,38.912 63.356 C 38.867 63.591,38.952 63.667,39.260 63.667 C 39.562 63.667,39.667 63.757,39.667 64.016 C 39.667 64.219,39.800 64.399,39.985 64.448 C 40.159 64.493,40.340 64.674,40.386 64.849 C 40.447 65.085,40.618 65.167,41.048 65.167 C 41.488 65.167,41.649 65.247,41.715 65.500 C 41.767 65.699,41.942 65.833,42.151 65.833 C 42.389 65.833,42.500 65.939,42.500 66.167 C 42.500 66.444,42.611 66.500,43.167 66.500 C 43.722 66.500,43.833 66.556,43.833 66.833 C 43.833 67.049,43.944 67.167,44.147 67.167 C 44.321 67.167,44.500 67.316,44.548 67.500 C 44.615 67.755,44.776 67.833,45.234 67.833 C 45.722 67.833,45.833 67.895,45.833 68.167 C 45.833 68.446,45.944 68.500,46.516 68.500 C 47.059 68.500,47.216 68.568,47.285 68.835 C 47.347 69.069,47.563 69.199,48.005 69.270 C 48.432 69.338,48.665 69.474,48.720 69.686 C 48.781 69.918,48.954 70.000,49.382 70.000 C 49.821 70.000,49.982 70.081,50.048 70.333 C 50.114 70.586,50.276 70.667,50.715 70.667 C 51.154 70.667,51.316 70.747,51.382 71.000 C 51.451 71.265,51.609 71.333,52.151 71.333 C 52.722 71.333,52.833 71.388,52.833 71.667 C 52.833 71.963,52.944 72.000,53.833 72.000 C 54.722 72.000,54.833 72.037,54.833 72.333 C 54.833 72.609,54.944 72.667,55.481 72.667 C 55.988 72.667,56.147 72.739,56.215 73.000 C 56.290 73.287,56.442 73.333,57.318 73.333 C 58.222 73.333,58.333 73.370,58.333 73.667 C 58.333 73.963,58.444 74.000,59.333 74.000 C 60.212 74.000,60.333 74.039,60.333 74.323 C 60.333 74.756,60.452 74.809,61.541 74.866 C 62.330 74.907,62.443 74.952,62.278 75.156 C 62.127 75.344,62.130 75.369,62.292 75.272 C 62.406 75.203,62.500 75.226,62.500 75.323 C 62.500 75.421,62.791 75.500,63.147 75.500 C 63.654 75.500,63.813 75.572,63.882 75.833 C 63.956 76.118,64.109 76.167,64.924 76.167 C 65.637 76.167,65.938 76.241,66.107 76.458 C 66.286 76.688,66.315 76.694,66.243 76.486 C 66.186 76.319,66.248 76.222,66.412 76.222 C 66.588 76.222,66.640 76.321,66.575 76.528 C 66.487 76.803,66.587 76.833,67.572 76.833 C 68.556 76.833,68.667 76.867,68.667 77.167 C 68.667 77.472,68.778 77.500,70.000 77.500 C 71.286 77.500,71.430 77.557,71.353 78.042 C 71.336 78.151,72.653 78.255,73.067 78.178 C 73.425 78.111,73.704 78.338,73.526 78.552 C 73.331 78.787,73.308 78.782,75.083 78.836 C 76.036 78.865,76.583 79.064,76.422 79.324 C 76.329 79.476,76.433 79.492,78.193 79.606 C 79.427 79.686,79.648 79.746,79.719 80.016 C 79.792 80.295,79.966 80.333,81.151 80.333 C 82.389 80.333,82.500 80.361,82.500 80.667 C 82.500 81.021,82.756 81.064,84.539 81.003 C 85.547 80.968,86.010 81.113,85.890 81.425 C 85.784 81.701,85.733 81.695,87.792 81.668 C 89.243 81.648,89.333 81.667,89.333 81.990 C 89.333 82.337,89.812 82.385,93.201 82.379 C 93.357 82.378,93.480 82.424,93.473 82.481 C 93.415 82.966,93.553 83.000,95.583 83.000 C 97.556 83.000,97.667 83.018,97.667 83.333 C 97.667 83.649,97.778 83.667,99.710 83.667 C 101.573 83.667,101.772 83.696,101.961 84.000 C 102.144 84.293,102.358 84.335,103.710 84.346 C 105.546 84.360,106.762 84.533,106.718 84.771 C 106.700 84.866,106.775 84.959,106.884 84.977 C 107.495 85.076,109.153 85.152,110.875 85.159 C 112.434 85.165,112.833 85.214,112.833 85.399 C 112.833 85.781,113.233 85.833,116.161 85.833 C 118.821 85.833,118.965 85.850,119.048 86.167 C 119.129 86.476,119.276 86.500,121.078 86.500 C 122.455 86.500,122.987 86.446,122.906 86.315 C 122.829 86.191,122.921 86.164,123.187 86.231 C 123.405 86.285,123.494 86.289,123.384 86.238 C 123.275 86.187,123.226 86.019,123.275 85.864 C 123.352 85.624,123.339 85.619,123.182 85.833 C 123.036 86.034,123.004 85.984,123.023 85.583 C 123.076 84.467,123.118 84.500,121.667 84.500 C 120.472 84.500,120.333 84.467,120.333 84.186 C 120.333 83.778,119.901 83.672,118.228 83.669 C 117.013 83.667,116.863 83.632,116.785 83.333 C 116.712 83.052,116.558 83.000,115.802 83.000 C 115.120 83.000,114.854 82.926,114.683 82.690 C 114.505 82.443,114.217 82.373,113.278 82.349 C 112.061 82.319,111.917 82.276,111.917 81.944 C 111.917 81.819,111.482 81.731,110.685 81.697 C 109.529 81.646,108.846 81.379,109.133 81.087 C 109.197 81.022,109.138 80.984,109.000 81.004 C 107.858 81.167,106.500 80.983,106.500 80.667 C 106.500 80.361,106.389 80.333,105.167 80.333 C 103.944 80.333,103.833 80.306,103.833 80.000 C 103.833 79.666,103.535 79.621,101.306 79.621 C 101.130 79.621,101.049 79.513,101.085 79.327 C 101.151 78.984,100.749 78.839,99.728 78.836 C 99.180 78.834,99.021 78.765,98.952 78.500 C 98.877 78.214,98.724 78.167,97.868 78.167 C 97.012 78.167,96.860 78.120,96.785 77.833 C 96.708 77.539,96.558 77.500,95.500 77.500 C 94.442 77.500,94.292 77.461,94.215 77.167 C 94.139 76.877,93.988 76.833,93.064 76.833 C 92.111 76.833,92.000 76.799,92.000 76.500 C 92.000 76.204,91.889 76.167,91.000 76.167 C 90.111 76.167,90.000 76.130,90.000 75.833 C 90.000 75.536,89.889 75.500,88.984 75.500 C 88.109 75.500,87.957 75.454,87.882 75.167 C 87.807 74.881,87.654 74.833,86.814 74.833 C 85.944 74.833,85.833 74.796,85.833 74.500 C 85.833 74.225,85.722 74.167,85.200 74.167 C 84.852 74.167,84.466 74.073,84.342 73.958 C 84.219 73.844,84.163 73.831,84.218 73.931 C 84.273 74.030,84.213 74.111,84.083 74.111 C 83.954 74.111,83.887 74.049,83.934 73.972 C 83.981 73.896,83.940 73.833,83.843 73.833 C 83.746 73.833,83.667 73.721,83.667 73.583 C 83.667 73.404,83.484 73.333,83.019 73.333 C 82.512 73.333,82.353 73.261,82.285 73.000 C 82.211 72.717,82.058 72.667,81.266 72.667 C 80.444 72.667,80.333 72.627,80.333 72.333 C 80.333 72.054,80.222 72.000,79.643 72.000 C 79.184 72.000,78.878 71.903,78.726 71.708 C 78.510 71.431,78.504 71.431,78.601 71.710 C 78.677 71.928,78.637 71.978,78.446 71.905 C 78.304 71.850,78.230 71.697,78.281 71.563 C 78.332 71.429,78.309 71.332,78.229 71.346 C 77.515 71.477,76.833 71.308,76.833 71.000 C 76.833 70.722,76.722 70.667,76.167 70.667 C 75.611 70.667,75.500 70.611,75.500 70.333 C 75.500 70.040,75.389 70.000,74.583 70.000 C 74.049 70.000,73.667 69.926,73.667 69.823 C 73.667 69.726,73.753 69.701,73.859 69.766 C 73.976 69.838,74.006 69.812,73.937 69.700 C 73.874 69.598,73.700 69.562,73.551 69.619 C 73.369 69.689,73.319 69.659,73.399 69.528 C 73.479 69.399,73.376 69.333,73.093 69.333 C 72.713 69.333,72.586 69.179,72.647 68.792 C 72.658 68.723,72.610 68.677,72.542 68.689 C 72.141 68.760,71.352 68.423,71.280 68.149 C 71.219 67.916,71.047 67.833,70.618 67.833 C 70.179 67.833,70.018 67.753,69.952 67.500 C 69.886 67.247,69.724 67.167,69.285 67.167 C 68.846 67.167,68.684 67.086,68.618 66.833 C 68.549 66.568,68.391 66.500,67.849 66.500 C 67.278 66.500,67.167 66.446,67.167 66.167 C 67.167 65.944,67.056 65.833,66.833 65.833 C 66.611 65.833,66.500 65.722,66.500 65.500 C 66.500 65.222,66.389 65.167,65.833 65.167 C 65.278 65.167,65.167 65.111,65.167 64.833 C 65.167 64.611,65.056 64.500,64.833 64.500 C 64.611 64.500,64.500 64.389,64.500 64.167 C 64.500 63.979,64.389 63.833,64.246 63.833 C 64.106 63.833,63.920 63.646,63.833 63.417 C 63.746 63.188,63.566 63.000,63.432 63.000 C 63.298 63.000,63.142 62.850,63.083 62.667 C 63.025 62.483,62.833 62.333,62.655 62.333 C 62.472 62.333,62.333 62.219,62.333 62.068 C 62.333 61.922,62.183 61.763,62.000 61.715 C 61.816 61.667,61.667 61.488,61.667 61.314 C 61.667 61.111,61.549 61.000,61.333 61.000 C 61.056 61.000,61.000 60.889,61.000 60.333 C 61.000 59.778,60.944 59.667,60.667 59.667 C 60.382 59.667,60.333 59.556,60.333 58.905 C 60.333 58.243,60.294 58.157,60.028 58.241 C 59.821 58.307,59.722 58.254,59.722 58.079 C 59.722 57.915,59.819 57.852,59.986 57.910 C 60.194 57.982,60.188 57.953,59.958 57.774 C 59.524 57.435,59.554 56.235,60.000 56.118 C 60.283 56.044,60.333 55.891,60.333 55.099 C 60.333 54.278,60.373 54.167,60.667 54.167 C 60.911 54.167,61.000 54.056,61.000 53.750 C 61.000 53.444,61.089 53.333,61.333 53.333 C 61.556 53.333,61.667 53.222,61.667 53.000 C 61.667 52.778,61.778 52.667,62.000 52.667 C 62.222 52.667,62.333 52.556,62.333 52.333 C 62.333 52.115,62.444 52.000,62.655 52.000 C 62.833 52.000,63.025 51.850,63.083 51.667 C 63.166 51.408,63.336 51.333,63.845 51.333 C 64.389 51.333,64.500 51.277,64.500 51.000 C 64.500 50.711,64.611 50.667,65.333 50.667 C 65.809 50.667,66.167 50.591,66.167 50.490 C 66.167 50.393,66.254 50.368,66.362 50.434 C 66.493 50.515,66.522 50.464,66.450 50.277 C 66.358 50.036,66.486 50.000,67.438 50.000 C 68.391 50.000,68.542 49.957,68.618 49.667 C 68.699 49.358,68.847 49.333,70.644 49.331 C 72.873 49.328,73.284 49.252,73.422 48.815 C 73.575 48.334,80.249 48.326,80.375 48.808 C 80.483 49.222,81.393 49.333,84.670 49.333 C 87.154 49.333,87.299 49.351,87.382 49.667 C 87.462 49.975,87.609 50.000,89.361 50.000 C 91.073 50.000,91.273 50.032,91.461 50.333 C 91.645 50.628,91.850 50.667,93.232 50.667 C 94.654 50.667,94.802 50.697,94.882 51.000 C 94.960 51.299,95.109 51.333,96.318 51.333 C 97.556 51.333,97.667 51.361,97.667 51.667 C 97.667 51.960,97.778 52.000,98.595 52.000 C 99.482 52.000,100.141 52.300,99.867 52.579 C 99.803 52.645,99.862 52.682,100.000 52.663 C 101.142 52.500,102.500 52.683,102.500 53.000 C 102.500 53.296,102.611 53.333,103.500 53.333 C 104.370 53.333,104.500 53.374,104.500 53.649 C 104.500 53.993,104.809 54.167,105.422 54.167 C 105.639 54.167,105.886 54.291,105.971 54.443 C 106.077 54.632,106.423 54.744,107.063 54.797 C 107.841 54.861,108.000 54.928,108.000 55.187 C 108.000 55.441,108.126 55.500,108.667 55.500 C 109.222 55.500,109.333 55.556,109.333 55.833 C 109.333 56.130,109.444 56.167,110.333 56.167 L 111.333 56.167 111.333 40.000 L 111.333 23.833 110.792 23.814 C 110.494 23.803,110.188 23.805,110.113 23.818 C 110.037 23.831,110.023 23.765,110.081 23.671 C 110.139 23.577,110.088 23.499,109.968 23.497 C 109.810 23.496,109.818 23.451,110.000 23.333 C 110.171 23.223,109.765 23.171,108.708 23.169 C 107.279 23.167,107.167 23.142,107.167 22.833 C 107.167 22.635,107.048 22.491,106.875 22.479 C 106.715 22.467,106.396 22.436,106.167 22.409 C 105.938 22.383,105.287 22.337,104.720 22.308 C 103.842 22.264,103.719 22.220,103.887 22.013 C 104.040 21.823,104.037 21.797,103.875 21.895 C 103.760 21.963,103.667 21.940,103.667 21.843 C 103.667 21.729,102.988 21.667,101.750 21.667 C 100.056 21.667,99.795 21.628,99.500 21.333 C 99.193 21.026,98.944 21.000,96.318 21.000 C 93.609 21.000,93.465 20.984,93.382 20.667 C 93.280 20.280,72.833 20.124,72.833 20.510 M359.667 41.170 C 359.667 41.271,359.760 41.306,359.875 41.247 C 359.990 41.189,359.938 41.260,359.760 41.404 C 359.556 41.569,359.108 41.667,358.551 41.667 C 357.778 41.667,357.667 41.709,357.667 42.000 C 357.667 42.227,357.556 42.333,357.318 42.333 C 357.108 42.333,356.934 42.467,356.881 42.668 C 356.832 42.858,356.603 43.045,356.355 43.099 C 355.547 43.275,355.500 43.320,355.500 43.911 C 355.500 44.389,355.437 44.500,355.167 44.500 C 354.861 44.500,354.702 45.055,354.818 45.721 C 354.831 45.796,354.764 45.810,354.668 45.751 C 354.573 45.692,354.545 45.562,354.606 45.463 C 354.674 45.354,354.640 45.330,354.523 45.402 C 354.416 45.469,354.371 45.593,354.424 45.678 C 354.477 45.764,354.440 45.833,354.343 45.833 C 353.963 45.833,354.117 51.185,354.500 51.285 C 354.761 51.353,354.833 51.512,354.833 52.019 C 354.833 52.556,354.891 52.667,355.167 52.667 C 355.389 52.667,355.500 52.778,355.500 53.000 C 355.500 53.222,355.611 53.333,355.833 53.333 C 356.061 53.333,356.167 53.444,356.167 53.682 C 356.167 53.885,356.300 54.066,356.485 54.114 C 356.659 54.160,356.840 54.341,356.886 54.515 C 356.950 54.763,357.120 54.833,357.651 54.833 C 358.222 54.833,358.333 54.888,358.333 55.167 C 358.333 55.488,358.444 55.500,361.349 55.500 C 364.224 55.500,364.369 55.485,364.452 55.167 C 364.500 54.982,364.679 54.833,364.853 54.833 C 365.051 54.833,365.167 54.716,365.167 54.515 C 365.167 54.273,365.327 54.169,365.833 54.083 C 366.510 53.969,366.546 53.914,366.546 52.972 C 366.546 52.791,366.654 52.715,366.856 52.754 C 367.091 52.800,367.167 52.714,367.167 52.407 C 367.167 52.112,367.258 52.000,367.497 52.000 C 367.859 52.000,367.985 51.668,368.046 50.556 C 368.077 49.975,368.123 49.894,368.324 50.056 C 368.510 50.206,368.536 50.203,368.439 50.042 C 368.370 49.927,368.393 49.833,368.490 49.833 C 368.847 49.833,368.709 47.042,368.333 46.667 C 368.148 46.481,368.000 46.111,368.000 45.833 C 368.000 45.558,367.921 45.333,367.823 45.333 C 367.726 45.333,367.691 45.262,367.745 45.175 C 367.798 45.089,367.701 45.045,367.527 45.078 C 367.320 45.118,367.212 45.044,367.212 44.861 C 367.212 43.989,367.155 43.833,366.833 43.833 C 366.615 43.833,366.500 43.722,366.500 43.511 C 366.500 43.334,366.358 43.144,366.185 43.089 C 366.011 43.034,365.831 42.841,365.784 42.661 C 365.719 42.414,365.554 42.333,365.118 42.333 C 364.685 42.333,364.518 42.252,364.454 42.010 C 364.390 41.765,364.196 41.675,363.643 41.635 C 363.148 41.600,362.931 41.513,362.962 41.363 C 362.988 41.241,362.931 41.189,362.837 41.247 C 362.744 41.306,362.667 41.283,362.667 41.197 C 362.667 41.111,361.992 41.029,361.167 41.014 C 360.171 40.996,359.667 41.048,359.667 41.170 M207.339 43.228 C 207.244 43.322,207.167 43.497,207.167 43.617 C 207.167 43.758,206.936 43.833,206.500 43.833 C 205.944 43.833,205.833 43.889,205.833 44.167 C 205.833 44.444,205.722 44.500,205.167 44.500 C 204.611 44.500,204.500 44.556,204.500 44.833 C 204.500 45.111,204.389 45.167,203.833 45.167 C 203.278 45.167,203.167 45.222,203.167 45.500 C 203.167 45.722,203.056 45.833,202.833 45.833 C 202.611 45.833,202.500 45.944,202.500 46.167 C 202.500 46.451,202.389 46.500,201.750 46.500 C 201.111 46.500,201.000 46.549,201.000 46.833 C 201.000 47.111,200.889 47.167,200.333 47.167 C 199.778 47.167,199.667 47.222,199.667 47.500 C 199.667 47.778,199.556 47.833,199.000 47.833 C 198.400 47.833,198.333 47.875,198.333 48.250 C 198.333 48.627,198.268 48.667,197.651 48.667 C 197.109 48.667,196.951 48.735,196.882 49.000 C 196.813 49.261,196.654 49.333,196.147 49.333 C 195.611 49.333,195.500 49.391,195.500 49.667 C 195.500 49.944,195.389 50.000,194.833 50.000 C 194.278 50.000,194.167 50.056,194.167 50.333 C 194.167 50.651,193.846 50.764,193.195 50.676 C 193.074 50.660,192.934 50.801,192.884 50.990 C 192.835 51.179,192.653 51.343,192.481 51.354 C 192.308 51.366,192.092 51.394,192.000 51.417 C 191.908 51.440,191.754 51.468,191.657 51.479 C 191.560 51.491,191.523 51.570,191.576 51.655 C 191.629 51.740,191.596 51.857,191.503 51.915 C 191.397 51.981,191.333 53.325,191.333 55.510 L 191.333 59.000 174.042 59.020 C 164.531 59.031,156.655 59.027,156.539 59.012 C 156.423 58.997,156.338 59.044,156.350 59.117 C 156.437 59.632,156.303 59.667,154.250 59.667 C 152.278 59.667,152.167 59.684,152.167 60.000 C 152.167 60.307,152.056 60.333,150.750 60.333 C 149.444 60.333,149.333 60.359,149.333 60.667 C 149.333 60.963,149.222 61.000,148.333 61.000 C 147.444 61.000,147.333 61.037,147.333 61.333 C 147.333 61.612,147.222 61.667,146.651 61.667 C 146.109 61.667,145.951 61.735,145.882 62.000 C 145.813 62.261,145.654 62.333,145.147 62.333 C 144.611 62.333,144.500 62.391,144.500 62.667 C 144.500 62.889,144.389 63.000,144.167 63.000 C 143.945 63.000,143.833 63.111,143.833 63.331 C 143.833 63.589,143.685 63.686,143.167 63.769 C 142.664 63.850,142.500 63.953,142.500 64.188 C 142.500 64.394,142.381 64.500,142.151 64.500 C 141.942 64.500,141.767 64.634,141.715 64.833 C 141.667 65.017,141.532 65.167,141.415 65.167 C 141.164 65.167,141.000 65.535,141.000 66.097 C 141.000 66.355,140.904 66.500,140.734 66.500 C 140.588 66.500,140.431 66.643,140.386 66.818 C 140.340 66.993,140.159 67.173,139.985 67.219 C 139.744 67.282,139.667 67.452,139.667 67.917 C 139.667 68.391,139.591 68.551,139.333 68.618 C 139.028 68.698,138.814 70.359,138.994 71.250 C 139.013 71.342,138.972 71.361,138.904 71.293 C 138.499 70.888,138.333 71.613,138.333 73.786 C 138.333 75.891,138.354 76.037,138.667 76.118 C 138.963 76.196,139.000 76.346,139.000 77.452 C 139.000 78.558,139.037 78.708,139.333 78.785 C 139.596 78.854,139.667 79.012,139.667 79.535 C 139.667 80.058,139.737 80.216,140.000 80.285 C 140.184 80.333,140.333 80.512,140.333 80.686 C 140.333 80.889,140.451 81.000,140.667 81.000 C 140.938 81.000,141.000 81.111,141.000 81.599 C 141.000 82.048,141.080 82.219,141.318 82.281 C 141.493 82.327,141.673 82.507,141.719 82.682 C 141.767 82.867,141.948 83.000,142.151 83.000 C 142.389 83.000,142.500 83.106,142.500 83.333 C 142.500 83.556,142.611 83.667,142.833 83.667 C 143.056 83.667,143.167 83.778,143.167 84.000 C 143.167 84.252,143.279 84.334,143.625 84.336 C 144.166 84.339,144.402 84.477,144.549 84.875 C 144.608 85.035,144.762 85.167,144.892 85.167 C 145.022 85.167,145.167 85.317,145.215 85.500 C 145.284 85.763,145.442 85.833,145.966 85.833 C 146.496 85.833,146.625 85.892,146.606 86.125 C 146.588 86.352,146.749 86.435,147.333 86.500 C 147.852 86.558,148.083 86.661,148.084 86.833 C 148.084 87.096,148.162 87.116,149.272 87.147 C 149.812 87.162,149.980 87.239,150.048 87.500 C 150.126 87.799,150.276 87.833,151.484 87.833 C 152.722 87.833,152.833 87.861,152.833 88.167 C 152.833 88.485,152.944 88.500,155.250 88.500 C 157.556 88.500,157.667 88.515,157.667 88.833 C 157.667 89.149,157.778 89.167,159.710 89.167 C 161.605 89.167,161.769 89.192,161.972 89.516 C 162.113 89.743,162.303 89.837,162.511 89.782 C 162.688 89.736,162.875 89.766,162.926 89.849 C 162.978 89.932,163.353 90.000,163.760 90.000 C 164.281 90.000,164.500 90.069,164.500 90.232 C 164.500 90.498,164.854 90.667,165.411 90.667 C 165.654 90.667,165.826 90.788,165.882 91.000 C 165.930 91.183,166.083 91.333,166.223 91.333 C 166.363 91.333,166.525 91.483,166.583 91.667 C 166.642 91.850,166.788 92.000,166.908 92.000 C 167.158 92.000,167.328 92.509,167.331 93.271 C 167.335 94.156,167.140 94.833,166.880 94.833 C 166.746 94.833,166.596 94.983,166.548 95.167 C 166.500 95.351,166.321 95.500,166.147 95.500 C 165.944 95.500,165.833 95.618,165.833 95.833 C 165.833 96.130,165.715 96.169,164.750 96.188 C 163.260 96.216,163.250 96.218,163.250 96.500 C 163.250 96.700,162.955 96.760,161.792 96.798 C 160.419 96.843,160.333 96.826,160.333 96.506 C 160.333 96.191,160.231 96.167,158.917 96.167 C 157.611 96.167,157.500 96.141,157.500 95.833 C 157.500 95.611,157.389 95.500,157.167 95.500 C 156.944 95.500,156.833 95.389,156.833 95.167 C 156.833 94.889,156.722 94.833,156.167 94.833 L 155.500 94.833 155.500 94.151 C 155.500 93.614,155.431 93.451,155.174 93.384 C 154.908 93.314,154.840 93.127,154.799 92.358 L 154.750 91.417 146.195 91.373 L 137.641 91.330 137.695 92.623 C 137.738 93.638,137.804 93.917,138.000 93.917 C 138.191 93.917,138.262 94.168,138.300 94.976 C 138.342 95.863,138.403 96.049,138.675 96.121 C 138.927 96.186,139.000 96.351,139.000 96.853 C 139.000 97.389,139.057 97.500,139.333 97.500 C 139.556 97.500,139.667 97.611,139.667 97.833 C 139.667 98.056,139.778 98.167,140.000 98.167 C 140.278 98.167,140.333 98.278,140.333 98.833 C 140.333 99.389,140.389 99.500,140.667 99.500 C 140.894 99.500,141.000 99.611,141.000 99.849 C 141.000 100.058,141.134 100.233,141.333 100.285 C 141.518 100.333,141.667 100.512,141.667 100.686 C 141.667 100.885,141.784 101.000,141.989 101.000 C 142.166 101.000,142.358 101.150,142.417 101.333 C 142.475 101.517,142.667 101.667,142.845 101.667 C 143.056 101.667,143.167 101.782,143.167 102.000 C 143.167 102.222,143.278 102.333,143.500 102.333 C 143.722 102.333,143.833 102.444,143.833 102.667 C 143.833 102.889,143.944 103.000,144.167 103.000 C 144.389 103.000,144.500 103.111,144.500 103.333 C 144.500 103.611,144.611 103.667,145.167 103.667 C 145.722 103.667,145.833 103.722,145.833 104.000 C 145.833 104.215,145.944 104.333,146.147 104.333 C 146.320 104.333,146.498 104.475,146.544 104.649 C 146.600 104.864,146.838 105.000,147.297 105.077 C 147.761 105.156,147.993 105.289,148.051 105.512 C 148.122 105.780,148.287 105.833,149.048 105.833 C 149.813 105.833,149.975 105.886,150.046 106.158 C 150.117 106.430,150.304 106.491,151.191 106.533 C 151.963 106.570,152.238 106.643,152.204 106.804 C 152.179 106.925,152.235 106.977,152.329 106.919 C 152.423 106.861,152.500 106.893,152.500 106.990 C 152.500 107.104,153.151 107.167,154.324 107.167 C 155.941 107.167,156.173 107.203,156.375 107.490 C 156.710 107.969,166.548 108.028,166.467 107.550 C 166.409 107.215,166.394 107.218,168.917 107.188 C 170.549 107.168,170.667 107.144,170.667 106.833 C 170.667 106.527,170.778 106.500,172.016 106.500 C 173.214 106.500,173.374 106.464,173.450 106.174 C 173.519 105.908,173.706 105.840,174.476 105.799 C 175.309 105.756,175.423 105.707,175.470 105.373 C 175.500 105.165,175.595 105.039,175.683 105.093 C 176.011 105.296,176.833 104.982,176.833 104.653 C 176.833 104.351,177.246 104.228,177.958 104.321 C 178.073 104.336,178.167 104.195,178.167 104.007 C 178.167 103.755,178.275 103.667,178.583 103.667 C 178.889 103.667,179.000 103.578,179.000 103.333 C 179.000 103.111,179.111 103.000,179.333 103.000 C 179.556 103.000,179.667 102.889,179.667 102.667 C 179.667 102.444,179.778 102.333,180.000 102.333 C 180.222 102.333,180.333 102.222,180.333 102.000 C 180.333 101.778,180.444 101.667,180.667 101.667 C 180.889 101.667,181.000 101.556,181.000 101.333 C 181.000 101.111,181.111 101.000,181.333 101.000 C 181.552 101.000,181.667 100.889,181.667 100.678 C 181.667 100.501,181.817 100.308,182.000 100.250 C 182.258 100.168,182.333 99.998,182.333 99.500 C 182.333 98.960,182.393 98.848,182.708 98.803 C 183.007 98.761,183.094 98.627,183.134 98.142 C 183.170 97.705,183.276 97.510,183.509 97.449 C 183.797 97.374,183.833 97.212,183.833 96.016 C 183.833 94.778,183.861 94.667,184.167 94.667 C 184.487 94.667,184.500 94.556,184.500 91.756 C 184.500 89.016,184.480 88.835,184.167 88.667 C 183.895 88.521,183.833 88.318,183.833 87.562 C 183.833 86.776,183.783 86.622,183.500 86.548 C 183.203 86.471,183.048 85.919,183.147 85.292 C 183.158 85.223,182.983 85.167,182.760 85.167 C 182.400 85.167,182.347 85.084,182.301 84.458 C 182.265 83.963,182.175 83.750,182.000 83.750 C 181.862 83.750,181.726 83.581,181.697 83.375 C 181.663 83.134,181.529 83.000,181.322 83.000 C 181.057 83.000,181.000 82.881,181.000 82.333 C 181.000 81.778,180.944 81.667,180.667 81.667 C 180.444 81.667,180.333 81.556,180.333 81.333 C 180.333 81.111,180.222 81.000,180.000 81.000 C 179.778 81.000,179.667 80.889,179.667 80.667 C 179.667 80.389,179.556 80.333,179.000 80.333 C 178.444 80.333,178.333 80.278,178.333 80.000 C 178.333 79.756,178.222 79.667,177.917 79.667 C 177.605 79.667,177.500 79.579,177.500 79.318 C 177.500 79.109,177.366 78.934,177.167 78.882 C 176.983 78.834,176.833 78.699,176.833 78.582 C 176.833 78.334,176.467 78.167,175.922 78.167 C 175.679 78.167,175.507 78.045,175.452 77.833 C 175.378 77.551,175.224 77.500,174.452 77.500 C 173.679 77.500,173.525 77.449,173.452 77.167 C 173.376 76.877,173.224 76.833,172.284 76.833 C 171.357 76.833,171.207 76.792,171.227 76.542 C 171.248 76.272,170.904 76.244,166.750 76.167 C 162.898 76.095,162.250 76.047,162.250 75.833 C 162.249 75.542,162.264 75.544,160.061 75.519 C 158.521 75.502,158.365 75.471,158.285 75.167 C 158.216 74.902,158.058 74.833,157.516 74.833 C 156.944 74.833,156.833 74.779,156.833 74.500 C 156.833 74.259,156.722 74.167,156.430 74.167 C 155.809 74.167,155.500 73.995,155.500 73.649 C 155.500 73.444,155.383 73.333,155.167 73.333 C 154.870 73.333,154.833 73.222,154.833 72.333 C 154.833 71.444,154.870 71.333,155.167 71.333 C 155.389 71.333,155.500 71.222,155.500 71.000 C 155.500 70.729,155.611 70.667,156.099 70.667 C 156.558 70.667,156.718 70.589,156.785 70.333 C 156.868 70.017,157.012 70.000,159.686 70.000 C 162.389 70.000,162.500 70.013,162.500 70.333 C 162.500 70.611,162.611 70.667,163.167 70.667 C 163.666 70.667,163.833 70.734,163.833 70.932 C 163.833 71.078,163.983 71.237,164.167 71.285 C 164.351 71.333,164.500 71.512,164.500 71.686 C 164.500 71.889,164.618 72.000,164.833 72.000 C 165.056 72.000,165.167 72.111,165.167 72.333 C 165.167 72.559,165.278 72.667,165.510 72.667 C 165.700 72.667,165.806 72.742,165.748 72.836 C 165.691 72.929,165.562 72.955,165.463 72.894 C 165.354 72.826,165.330 72.860,165.402 72.977 C 165.469 73.084,165.593 73.129,165.678 73.076 C 165.764 73.023,165.833 73.210,165.833 73.490 L 165.833 74.000 178.583 74.000 L 191.333 74.000 191.333 85.718 C 191.333 95.888,191.366 97.479,191.584 97.760 C 191.827 98.073,191.831 98.074,191.722 97.764 C 191.645 97.544,191.670 97.483,191.805 97.566 C 191.912 97.632,192.000 98.010,192.000 98.406 C 192.000 99.537,192.169 100.128,192.518 100.220 C 192.763 100.284,192.833 100.455,192.833 100.984 C 192.833 101.556,192.888 101.667,193.167 101.667 C 193.389 101.667,193.500 101.778,193.500 102.000 C 193.500 102.222,193.611 102.333,193.833 102.333 C 194.111 102.333,194.167 102.444,194.167 103.000 C 194.167 103.556,194.222 103.667,194.500 103.667 C 194.722 103.667,194.833 103.778,194.833 104.000 C 194.833 104.222,194.944 104.333,195.167 104.333 C 195.389 104.333,195.500 104.444,195.500 104.667 C 195.500 104.885,195.611 105.000,195.822 105.000 C 195.999 105.000,196.192 105.150,196.250 105.333 C 196.322 105.561,196.557 105.699,196.997 105.769 C 197.431 105.838,197.664 105.973,197.720 106.186 C 197.788 106.445,197.961 106.500,198.715 106.500 C 199.491 106.500,199.641 106.551,199.716 106.837 C 199.838 107.305,213.381 107.355,213.297 106.887 C 213.270 106.735,213.381 106.601,213.555 106.573 C 213.776 106.539,213.833 106.602,213.762 106.805 C 213.677 107.050,213.693 107.048,213.893 106.792 C 214.087 106.543,214.414 106.500,216.132 106.500 C 217.960 106.500,218.153 106.471,218.244 106.185 C 218.299 106.011,218.496 105.830,218.681 105.781 C 219.161 105.656,219.121 103.833,218.638 103.833 C 218.352 103.833,218.332 103.601,218.317 100.125 C 218.300 96.387,218.215 95.549,217.860 95.625 C 217.733 95.652,217.660 95.340,217.647 94.708 C 217.608 92.812,216.943 91.962,216.301 92.990 C 216.140 93.248,215.913 93.333,215.386 93.333 C 215.001 93.333,214.639 93.410,214.582 93.503 C 214.524 93.596,214.394 93.621,214.293 93.559 C 214.175 93.486,214.148 93.544,214.216 93.723 C 214.312 93.971,214.133 94.000,212.514 94.000 C 210.846 94.000,210.699 93.974,210.618 93.667 C 210.570 93.483,210.412 93.333,210.266 93.333 C 210.111 93.333,210.000 93.194,210.000 93.000 C 210.000 92.778,209.889 92.667,209.667 92.667 C 209.337 92.667,209.333 92.556,209.333 83.333 L 209.333 74.000 213.836 74.000 L 218.340 74.000 218.330 66.500 L 218.320 59.000 213.828 59.000 L 209.337 59.000 209.293 51.042 L 209.250 43.083 208.381 43.069 C 207.903 43.062,207.434 43.133,207.339 43.228 M361.227 44.204 C 361.165 44.303,361.187 44.341,361.274 44.287 C 361.361 44.233,361.542 44.258,361.675 44.342 C 361.844 44.449,361.717 44.492,361.250 44.484 C 360.883 44.478,360.677 44.436,360.792 44.390 C 360.906 44.343,361.000 44.195,361.000 44.060 C 361.000 43.924,361.076 43.861,361.169 43.918 C 361.263 43.976,361.288 44.104,361.227 44.204 M363.215 44.833 C 363.287 45.110,363.220 45.167,362.818 45.167 C 362.444 45.167,362.333 45.090,362.333 44.833 C 362.333 44.593,362.444 44.500,362.731 44.500 C 362.988 44.500,363.159 44.618,363.215 44.833 M364.500 45.500 C 364.500 45.719,364.611 45.833,364.825 45.833 C 365.104 45.833,365.157 45.970,365.200 46.792 C 365.237 47.510,365.313 47.750,365.500 47.750 C 365.934 47.750,365.942 49.266,365.508 49.379 C 365.255 49.446,365.167 49.605,365.167 49.996 C 365.167 50.463,364.861 51.000,364.595 51.000 C 364.543 51.000,364.500 50.805,364.500 50.568 C 364.500 50.283,364.392 50.107,364.182 50.052 C 363.587 49.897,363.591 48.500,364.186 48.500 C 364.678 48.500,364.660 46.011,364.167 45.882 C 363.982 45.833,363.833 45.654,363.833 45.481 C 363.833 45.278,363.951 45.167,364.167 45.167 C 364.389 45.167,364.500 45.278,364.500 45.500 M358.333 48.394 L 358.333 51.454 357.917 51.374 C 357.648 51.323,357.500 51.183,357.500 50.981 C 357.500 50.778,357.382 50.667,357.167 50.667 C 356.851 50.667,356.833 50.556,356.833 48.583 C 356.833 46.611,356.851 46.500,357.167 46.500 C 357.389 46.500,357.500 46.389,357.500 46.167 C 357.500 45.944,357.611 45.833,357.833 45.833 C 358.019 45.833,358.167 45.722,358.167 45.583 C 358.167 45.446,358.204 45.333,358.250 45.333 C 358.296 45.333,358.333 46.710,358.333 48.394 M361.686 51.561 C 361.697 51.665,361.697 51.806,361.686 51.875 C 361.676 51.944,362.004 52.000,362.417 52.000 C 363.056 52.000,363.167 52.049,363.167 52.333 C 363.167 52.649,363.056 52.667,361.103 52.667 C 359.179 52.667,359.033 52.644,358.952 52.333 C 358.871 52.026,358.947 52.000,359.932 52.000 C 360.949 52.000,361.000 51.981,361.000 51.599 C 361.000 51.180,361.643 51.144,361.686 51.561 M45.813 74.047 C 45.894 74.127,46.175 74.166,46.438 74.133 C 46.879 74.078,46.867 74.066,46.292 73.987 C 45.934 73.937,45.729 73.963,45.813 74.047 M102.444 83.949 C 102.444 84.074,102.368 84.150,102.274 84.119 C 102.009 84.031,101.965 83.722,102.218 83.722 C 102.342 83.722,102.444 83.824,102.444 83.949 M337.560 88.654 C 337.574 89.005,337.679 89.250,337.833 89.292 C 338.002 89.337,338.021 89.314,337.890 89.220 C 337.784 89.144,337.661 88.857,337.617 88.583 C 337.543 88.125,337.538 88.131,337.560 88.654 M277.386 106.125 C 279.386 106.151,282.611 106.151,284.553 106.125 C 286.495 106.098,284.858 106.076,280.917 106.076 C 276.975 106.076,275.386 106.098,277.386 106.125 M309.792 106.125 C 312.015 106.151,315.652 106.151,317.875 106.125 C 320.098 106.099,318.279 106.077,313.833 106.077 C 309.387 106.077,307.569 106.099,309.792 106.125 " stroke="none" fill="#535759" fill-rule="evenodd"></path><path id="path1" d="M109.959 23.434 C 110.075 23.486,110.134 23.585,110.092 23.653 C 110.049 23.722,110.126 23.778,110.262 23.778 C 110.619 23.778,110.449 23.424,110.070 23.378 C 109.894 23.357,109.844 23.382,109.959 23.434 M359.310 41.444 C 359.209 41.567,359.196 41.667,359.281 41.667 C 359.366 41.667,359.573 41.567,359.740 41.444 C 360.006 41.250,360.010 41.222,359.769 41.222 C 359.618 41.222,359.412 41.322,359.310 41.444 M288.375 43.118 C 288.141 43.163,288.000 43.310,288.000 43.512 C 288.000 43.770,287.882 43.833,287.401 43.833 C 286.942 43.833,286.782 43.911,286.715 44.167 C 286.659 44.382,286.488 44.500,286.231 44.500 C 285.944 44.500,285.833 44.593,285.833 44.833 C 285.833 45.111,285.722 45.167,285.167 45.167 C 284.611 45.167,284.500 45.222,284.500 45.500 C 284.500 45.778,284.389 45.833,283.833 45.833 C 283.278 45.833,283.167 45.889,283.167 46.167 C 283.167 46.443,283.056 46.500,282.511 46.500 C 282.002 46.500,281.832 46.574,281.750 46.833 C 281.682 47.046,281.498 47.167,281.239 47.167 C 281.016 47.167,280.685 47.315,280.504 47.496 C 280.323 47.677,279.984 47.873,279.750 47.932 C 279.516 47.990,279.249 48.180,279.156 48.353 C 279.064 48.525,278.841 48.667,278.661 48.667 C 278.444 48.667,278.333 48.780,278.333 49.000 C 278.333 49.279,278.222 49.333,277.651 49.333 C 277.109 49.333,276.951 49.402,276.882 49.667 C 276.813 49.928,276.654 50.000,276.147 50.000 C 275.611 50.000,275.500 50.057,275.500 50.333 C 275.500 50.611,275.389 50.667,274.833 50.667 C 274.278 50.667,274.167 50.722,274.167 51.000 C 274.167 51.271,274.056 51.333,273.568 51.333 C 273.116 51.333,272.948 51.413,272.885 51.655 C 272.828 51.873,272.598 52.011,272.169 52.083 C 271.279 52.233,271.333 50.457,271.333 79.321 C 271.333 106.256,271.323 105.833,271.962 105.833 C 272.088 105.833,272.303 105.946,272.440 106.083 C 272.825 106.467,289.081 106.458,289.630 106.074 L 290.000 105.814 290.000 99.907 C 290.000 94.111,290.006 94.000,290.333 94.000 C 290.556 94.000,290.667 93.889,290.667 93.667 C 290.667 93.444,290.778 93.333,291.000 93.333 C 291.222 93.333,291.333 93.222,291.333 93.000 C 291.333 92.778,291.444 92.667,291.667 92.667 C 291.889 92.667,292.000 92.556,292.000 92.333 C 292.000 92.115,292.111 92.000,292.322 92.000 C 292.499 92.000,292.689 91.858,292.744 91.685 C 292.799 91.511,292.992 91.331,293.172 91.284 C 293.352 91.236,293.500 91.078,293.500 90.932 C 293.500 90.786,293.620 90.667,293.766 90.667 C 293.912 90.667,294.069 90.524,294.114 90.349 C 294.160 90.174,294.341 89.993,294.515 89.948 C 294.700 89.899,294.833 89.719,294.833 89.516 C 294.833 89.057,295.439 89.044,295.583 89.500 C 295.642 89.683,295.797 89.833,295.928 89.833 C 296.081 89.833,296.167 90.009,296.167 90.320 C 296.167 90.959,296.319 91.333,296.580 91.333 C 296.697 91.333,296.838 91.630,296.897 92.000 C 296.980 92.518,297.078 92.667,297.335 92.667 C 297.611 92.667,297.667 92.779,297.667 93.333 C 297.667 93.889,297.722 94.000,298.000 94.000 C 298.279 94.000,298.333 94.111,298.333 94.682 C 298.333 95.224,298.402 95.382,298.667 95.452 C 298.928 95.520,299.000 95.679,299.000 96.186 C 299.000 96.722,299.057 96.833,299.333 96.833 C 299.611 96.833,299.667 96.944,299.667 97.500 C 299.667 98.056,299.722 98.167,300.000 98.167 C 300.278 98.167,300.333 98.278,300.333 98.833 C 300.333 99.389,300.389 99.500,300.667 99.500 C 300.946 99.500,301.000 99.611,301.000 100.182 C 301.000 100.724,301.068 100.882,301.333 100.952 C 301.585 101.017,301.667 101.179,301.667 101.608 C 301.667 101.998,301.759 102.211,301.958 102.285 C 302.357 102.432,302.494 102.668,302.497 103.208 C 302.499 103.555,302.581 103.667,302.833 103.667 C 303.129 103.667,303.167 103.778,303.167 104.648 L 303.167 105.630 303.783 105.745 C 304.123 105.809,304.479 105.965,304.575 106.091 C 304.718 106.280,319.443 106.477,323.354 106.343 C 323.877 106.325,323.933 104.500,323.410 104.500 C 323.289 104.500,323.166 104.331,323.137 104.125 C 323.102 103.884,322.949 103.731,322.708 103.697 C 322.392 103.652,322.333 103.541,322.333 102.988 C 322.333 102.444,322.277 102.333,322.000 102.333 C 321.722 102.333,321.667 102.222,321.667 101.667 C 321.667 101.111,321.611 101.000,321.333 101.000 C 321.056 101.000,321.000 100.889,321.000 100.333 C 321.000 99.778,320.944 99.667,320.667 99.667 C 320.390 99.667,320.333 99.556,320.333 99.011 C 320.333 98.502,320.259 98.332,320.000 98.250 C 319.817 98.192,319.667 97.999,319.667 97.822 C 319.667 97.611,319.552 97.500,319.333 97.500 C 319.056 97.500,319.000 97.389,319.000 96.833 C 319.000 96.278,318.944 96.167,318.667 96.167 C 318.425 96.167,318.333 96.056,318.333 95.764 C 318.333 95.142,318.161 94.833,317.816 94.833 C 317.559 94.833,317.500 94.710,317.500 94.178 C 317.500 93.669,317.426 93.499,317.167 93.417 C 316.983 93.358,316.833 93.166,316.833 92.989 C 316.833 92.778,316.718 92.667,316.500 92.667 C 316.222 92.667,316.167 92.556,316.167 92.000 C 316.167 91.444,316.111 91.333,315.833 91.333 C 315.556 91.333,315.500 91.222,315.500 90.667 C 315.500 90.111,315.444 90.000,315.167 90.000 C 314.890 90.000,314.833 89.889,314.833 89.345 C 314.833 88.848,314.757 88.665,314.517 88.589 C 314.324 88.528,314.161 88.271,314.096 87.927 C 314.038 87.618,313.880 87.323,313.745 87.271 C 313.610 87.220,313.500 87.025,313.500 86.839 C 313.500 86.619,313.390 86.500,313.188 86.500 C 312.953 86.500,312.850 86.336,312.769 85.833 C 312.686 85.315,312.589 85.167,312.331 85.167 C 312.057 85.167,312.000 85.054,312.000 84.511 C 312.000 84.002,311.926 83.832,311.667 83.750 C 311.416 83.671,311.333 83.498,311.333 83.056 C 311.333 82.619,311.252 82.448,311.016 82.386 C 310.816 82.333,310.660 82.098,310.594 81.751 C 310.538 81.447,310.380 81.156,310.245 81.105 C 310.110 81.053,310.000 80.858,310.000 80.672 C 310.000 80.444,309.891 80.333,309.667 80.333 C 309.389 80.333,309.333 80.222,309.333 79.667 C 309.333 79.111,309.278 79.000,309.000 79.000 C 308.731 79.000,308.667 78.889,308.667 78.426 C 308.667 78.043,308.557 77.775,308.336 77.621 C 307.809 77.252,307.807 76.256,308.333 76.118 C 308.517 76.070,308.667 75.920,308.667 75.785 C 308.667 75.650,308.817 75.500,309.000 75.452 C 309.183 75.404,309.333 75.254,309.333 75.118 C 309.333 74.983,309.483 74.833,309.667 74.785 C 309.866 74.733,310.000 74.558,310.000 74.349 C 310.000 74.111,310.106 74.000,310.333 74.000 C 310.556 74.000,310.667 73.889,310.667 73.667 C 310.667 73.444,310.778 73.333,311.000 73.333 C 311.222 73.333,311.333 73.222,311.333 73.000 C 311.333 72.778,311.444 72.667,311.667 72.667 C 311.889 72.667,312.000 72.556,312.000 72.333 C 312.000 72.115,312.111 72.000,312.322 72.000 C 312.499 72.000,312.689 71.858,312.744 71.685 C 312.799 71.511,312.992 71.331,313.172 71.284 C 313.352 71.236,313.500 71.087,313.500 70.952 C 313.500 70.816,313.650 70.666,313.833 70.618 C 314.017 70.570,314.167 70.412,314.167 70.266 C 314.167 70.120,314.281 70.000,314.421 70.000 C 314.561 70.000,314.746 69.813,314.833 69.583 C 314.920 69.354,315.106 69.167,315.246 69.167 C 315.389 69.167,315.500 69.021,315.500 68.833 C 315.500 68.611,315.611 68.500,315.833 68.500 C 316.056 68.500,316.167 68.389,316.167 68.167 C 316.167 67.944,316.278 67.833,316.500 67.833 C 316.722 67.833,316.833 67.722,316.833 67.500 C 316.833 67.278,316.944 67.167,317.167 67.167 C 317.389 67.167,317.500 67.056,317.500 66.833 C 317.500 66.615,317.611 66.500,317.822 66.500 C 317.999 66.500,318.189 66.358,318.244 66.185 C 318.299 66.011,318.492 65.831,318.672 65.784 C 318.852 65.736,319.000 65.583,319.000 65.444 C 319.000 65.304,319.150 65.142,319.333 65.083 C 319.517 65.025,319.667 64.833,319.667 64.655 C 319.667 64.444,319.782 64.333,320.000 64.333 C 320.222 64.333,320.333 64.222,320.333 64.000 C 320.333 63.778,320.444 63.667,320.667 63.667 C 320.889 63.667,321.000 63.556,321.000 63.333 C 321.000 63.111,321.111 63.000,321.333 63.000 C 321.556 63.000,321.667 62.889,321.667 62.667 C 321.667 62.444,321.778 62.333,322.000 62.333 C 322.296 62.333,322.333 62.222,322.333 61.333 L 322.333 60.333 311.667 60.333 C 301.111 60.333,301.000 60.337,301.000 60.667 C 301.000 60.889,300.889 61.000,300.667 61.000 C 300.444 61.000,300.333 61.111,300.333 61.333 C 300.333 61.556,300.222 61.667,300.000 61.667 C 299.785 61.667,299.667 61.778,299.667 61.981 C 299.667 62.154,299.518 62.333,299.333 62.382 C 299.134 62.434,299.000 62.609,299.000 62.818 C 299.000 63.056,298.894 63.167,298.667 63.167 C 298.460 63.167,298.333 63.278,298.333 63.460 C 298.333 63.621,298.183 63.847,298.000 63.961 C 297.787 64.094,297.667 64.350,297.667 64.668 C 297.667 65.063,297.594 65.167,297.318 65.167 C 297.109 65.167,296.934 65.301,296.882 65.500 C 296.834 65.683,296.684 65.833,296.548 65.833 C 296.413 65.833,296.263 65.983,296.215 66.167 C 296.167 66.350,296.017 66.500,295.882 66.500 C 295.746 66.500,295.598 66.643,295.552 66.818 C 295.507 66.993,295.326 67.173,295.151 67.219 C 294.974 67.265,294.833 67.448,294.833 67.632 C 294.833 67.821,294.692 67.998,294.500 68.048 C 294.245 68.115,294.167 68.276,294.167 68.734 C 294.167 69.222,294.105 69.333,293.833 69.333 C 293.611 69.333,293.500 69.444,293.500 69.667 C 293.500 69.889,293.389 70.000,293.167 70.000 C 292.944 70.000,292.833 70.111,292.833 70.333 C 292.833 70.552,292.722 70.667,292.511 70.667 C 292.334 70.667,292.142 70.817,292.083 71.000 C 292.025 71.183,291.868 71.333,291.734 71.333 C 291.599 71.333,291.441 71.465,291.381 71.625 C 291.321 71.785,291.136 72.015,290.969 72.134 C 290.800 72.257,290.667 72.559,290.667 72.823 C 290.667 73.154,290.567 73.320,290.333 73.382 C 289.880 73.500,289.797 44.280,290.250 44.106 C 291.337 43.689,289.751 42.853,288.375 43.118 M367.222 44.917 C 367.222 45.054,367.259 45.130,367.304 45.085 C 367.349 45.040,367.499 45.096,367.637 45.210 C 367.856 45.390,367.862 45.369,367.688 45.042 C 367.459 44.612,367.222 44.549,367.222 44.917 M366.556 52.949 C 366.556 53.202,366.864 53.158,366.953 52.892 C 366.984 52.799,366.907 52.722,366.782 52.722 C 366.658 52.722,366.556 52.824,366.556 52.949 M59.722 58.083 C 59.722 58.226,59.790 58.320,59.874 58.292 C 59.957 58.264,60.025 58.170,60.025 58.083 C 60.025 57.996,59.957 57.902,59.874 57.875 C 59.790 57.847,59.722 57.941,59.722 58.083 M240.208 59.110 C 240.094 59.157,240.000 59.268,240.000 59.357 C 240.000 59.446,240.094 59.466,240.208 59.400 C 240.329 59.330,240.358 59.343,240.278 59.432 C 240.103 59.622,240.115 59.621,238.436 59.646 C 237.188 59.664,237.030 59.702,236.952 60.000 C 236.876 60.291,236.724 60.333,235.764 60.333 C 234.870 60.333,234.610 60.396,234.378 60.667 C 234.186 60.891,233.886 61.000,233.463 61.000 C 232.944 61.000,232.833 61.059,232.833 61.333 C 232.833 61.611,232.722 61.667,232.167 61.667 C 231.722 61.667,231.389 61.778,231.167 62.000 C 230.983 62.183,230.646 62.333,230.417 62.333 C 230.188 62.333,229.850 62.483,229.667 62.667 C 229.483 62.850,229.219 63.000,229.079 63.000 C 228.939 63.000,228.754 63.188,228.667 63.417 C 228.539 63.752,228.394 63.833,227.921 63.833 C 227.444 63.833,227.333 63.896,227.333 64.167 C 227.333 64.394,227.222 64.500,226.984 64.500 C 226.776 64.500,226.600 64.634,226.548 64.833 C 226.500 65.018,226.321 65.167,226.147 65.167 C 225.944 65.167,225.833 65.285,225.833 65.500 C 225.833 65.722,225.722 65.833,225.500 65.833 C 225.278 65.833,225.167 65.944,225.167 66.167 C 225.167 66.389,225.056 66.500,224.833 66.500 C 224.611 66.500,224.500 66.611,224.500 66.833 C 224.500 67.056,224.389 67.167,224.167 67.167 C 223.944 67.167,223.833 67.278,223.833 67.500 C 223.833 67.722,223.722 67.833,223.500 67.833 C 223.282 67.833,223.167 67.944,223.167 68.155 C 223.167 68.333,223.017 68.525,222.833 68.583 C 222.650 68.642,222.500 68.834,222.500 69.011 C 222.500 69.216,222.385 69.333,222.184 69.333 C 221.839 69.333,221.667 69.642,221.667 70.264 C 221.667 70.556,221.575 70.667,221.333 70.667 C 221.056 70.667,221.000 70.778,221.000 71.333 C 221.000 71.889,220.944 72.000,220.667 72.000 C 220.422 72.000,220.333 72.111,220.333 72.417 C 220.333 72.662,220.238 72.833,220.101 72.833 C 219.795 72.833,219.667 73.202,219.667 74.078 C 219.667 74.654,219.601 74.811,219.333 74.882 C 219.023 74.963,219.000 75.109,219.000 76.965 C 219.000 78.821,218.977 78.967,218.667 79.048 C 218.347 79.132,218.333 79.276,218.333 82.645 C 218.333 85.984,218.350 86.164,218.667 86.333 C 218.971 86.496,219.000 86.682,219.000 88.486 C 219.000 90.321,219.024 90.467,219.333 90.548 C 219.621 90.623,219.667 90.776,219.667 91.651 C 219.667 92.533,219.708 92.667,219.979 92.667 C 220.233 92.667,220.306 92.827,220.374 93.528 C 220.424 94.054,220.562 94.467,220.728 94.588 C 220.878 94.697,221.000 94.985,221.000 95.227 C 221.000 95.469,221.142 95.809,221.316 95.983 C 221.490 96.157,221.683 96.529,221.745 96.809 C 221.809 97.100,221.994 97.362,222.178 97.420 C 222.355 97.477,222.500 97.667,222.500 97.845 C 222.500 98.056,222.615 98.167,222.833 98.167 C 223.105 98.167,223.167 98.278,223.167 98.766 C 223.167 99.224,223.245 99.385,223.500 99.452 C 223.684 99.500,223.833 99.679,223.833 99.853 C 223.833 100.025,223.948 100.167,224.087 100.167 C 224.227 100.167,224.413 100.354,224.500 100.583 C 224.587 100.813,224.773 101.000,224.913 101.000 C 225.052 101.000,225.167 101.120,225.167 101.266 C 225.167 101.412,225.310 101.569,225.485 101.614 C 225.659 101.660,225.840 101.841,225.886 102.015 C 225.931 102.190,226.088 102.333,226.234 102.333 C 226.380 102.333,226.650 102.483,226.833 102.667 C 227.017 102.850,227.354 103.000,227.583 103.000 C 227.889 103.000,228.000 103.089,228.000 103.333 C 228.000 103.556,228.111 103.667,228.333 103.667 C 228.556 103.667,228.667 103.778,228.667 104.000 C 228.667 104.278,228.778 104.333,229.333 104.333 C 229.873 104.333,230.000 104.393,230.000 104.645 C 230.000 104.883,230.160 104.978,230.680 105.047 C 231.055 105.098,231.457 105.272,231.578 105.438 C 231.743 105.663,232.086 105.753,232.967 105.803 C 233.943 105.858,234.151 105.922,234.220 106.185 C 234.294 106.468,234.474 106.500,235.984 106.500 C 237.306 106.500,237.667 106.549,237.667 106.731 C 237.667 107.103,238.230 107.162,241.792 107.164 L 245.167 107.167 245.167 101.533 C 245.167 94.975,245.335 95.500,243.236 95.500 C 241.846 95.500,241.698 95.469,241.618 95.167 C 241.552 94.911,241.391 94.833,240.932 94.833 C 240.444 94.833,240.333 94.771,240.333 94.500 C 240.333 94.317,240.223 94.167,240.089 94.167 C 239.955 94.167,239.765 94.017,239.667 93.833 C 239.569 93.650,239.390 93.500,239.271 93.500 C 239.151 93.500,238.968 93.313,238.864 93.083 C 238.759 92.854,238.597 92.667,238.504 92.667 C 238.410 92.667,238.333 92.552,238.333 92.411 C 238.333 92.271,238.202 92.108,238.042 92.049 C 237.620 91.893,237.505 91.662,237.503 90.960 C 237.501 90.519,237.403 90.275,237.167 90.128 C 236.918 89.973,236.833 89.739,236.833 89.210 L 236.833 88.500 252.932 88.500 C 268.736 88.500,269.033 88.494,269.116 88.176 C 269.163 87.998,269.362 87.829,269.559 87.801 C 270.105 87.723,270.210 80.801,269.670 80.463 C 269.363 80.272,269.333 80.079,269.333 78.278 C 269.333 76.442,269.310 76.296,269.000 76.215 C 268.705 76.138,268.667 75.988,268.667 74.903 C 268.667 73.849,268.620 73.654,268.333 73.500 C 268.100 73.375,268.000 73.151,268.000 72.755 C 268.000 71.992,267.732 71.333,267.421 71.333 C 267.235 71.333,267.167 71.153,267.167 70.667 C 267.167 70.111,267.111 70.000,266.833 70.000 C 266.574 70.000,266.500 69.889,266.500 69.501 C 266.500 69.183,266.379 68.927,266.167 68.795 C 265.983 68.680,265.833 68.448,265.833 68.278 C 265.833 68.108,265.683 67.930,265.500 67.882 C 265.316 67.833,265.167 67.654,265.167 67.481 C 265.167 67.278,265.049 67.167,264.833 67.167 C 264.611 67.167,264.500 67.056,264.500 66.833 C 264.500 66.611,264.389 66.500,264.167 66.500 C 263.944 66.500,263.833 66.389,263.833 66.167 C 263.833 65.951,263.722 65.833,263.519 65.833 C 263.346 65.833,263.167 65.684,263.118 65.500 C 263.066 65.301,262.891 65.167,262.682 65.167 C 262.444 65.167,262.333 65.061,262.333 64.833 C 262.333 64.611,262.222 64.500,262.000 64.500 C 261.778 64.500,261.667 64.389,261.667 64.167 C 261.667 63.944,261.556 63.833,261.333 63.833 C 261.117 63.833,261.000 63.722,261.000 63.518 C 261.000 63.175,260.692 63.000,260.089 63.000 C 259.846 63.000,259.674 62.878,259.618 62.667 C 259.566 62.467,259.391 62.333,259.182 62.333 C 258.990 62.333,258.833 62.229,258.833 62.101 C 258.833 61.794,258.464 61.667,257.570 61.667 C 256.944 61.667,256.833 61.616,256.833 61.333 C 256.833 61.059,256.722 61.000,256.207 61.000 C 255.761 61.000,255.520 60.904,255.372 60.667 C 255.194 60.382,254.983 60.333,253.915 60.333 C 252.778 60.333,252.667 60.304,252.667 60.000 C 252.667 59.685,252.556 59.667,250.651 59.667 C 248.776 59.667,248.629 59.643,248.548 59.333 C 248.464 59.011,240.953 58.810,240.208 59.110 M338.382 59.333 C 338.304 59.631,338.154 59.667,336.992 59.667 C 335.836 59.667,335.677 59.704,335.583 60.000 C 335.494 60.280,335.331 60.333,334.556 60.333 C 333.776 60.333,333.622 60.384,333.548 60.667 C 333.480 60.927,333.321 61.000,332.825 61.000 C 332.336 61.000,332.165 61.077,332.083 61.333 C 332.004 61.584,331.831 61.667,331.390 61.667 C 330.942 61.667,330.781 61.746,330.715 62.000 C 330.649 62.253,330.488 62.333,330.048 62.333 C 329.618 62.333,329.447 62.415,329.386 62.651 C 329.332 62.856,329.095 63.008,328.716 63.079 C 328.334 63.150,328.100 63.301,328.045 63.511 C 327.999 63.688,327.820 63.833,327.647 63.833 C 327.444 63.833,327.333 63.951,327.333 64.167 C 327.333 64.411,327.222 64.500,326.917 64.500 C 326.611 64.500,326.500 64.589,326.500 64.833 C 326.500 65.056,326.389 65.167,326.167 65.167 C 325.944 65.167,325.833 65.278,325.833 65.500 C 325.833 65.722,325.722 65.833,325.500 65.833 C 325.278 65.833,325.167 65.944,325.167 66.167 C 325.167 66.389,325.056 66.500,324.833 66.500 C 324.611 66.500,324.500 66.611,324.500 66.833 C 324.500 67.056,324.389 67.167,324.167 67.167 C 323.939 67.167,323.833 67.278,323.833 67.516 C 323.833 67.724,323.699 67.900,323.500 67.952 C 323.239 68.020,323.167 68.179,323.167 68.686 C 323.167 69.222,323.109 69.333,322.833 69.333 C 322.618 69.333,322.500 69.444,322.500 69.647 C 322.500 69.820,322.355 69.999,322.178 70.045 C 321.964 70.101,321.817 70.337,321.740 70.745 C 321.677 71.083,321.521 71.400,321.395 71.448 C 321.268 71.497,321.118 71.828,321.061 72.185 C 321.004 72.542,320.863 72.833,320.747 72.833 C 320.460 72.833,320.333 73.220,320.333 74.089 C 320.333 74.609,320.250 74.863,320.042 74.980 C 319.803 75.113,319.740 75.430,319.693 76.723 C 319.643 78.110,319.597 78.313,319.318 78.386 C 318.812 78.518,318.826 87.855,319.333 88.289 C 319.614 88.529,319.667 88.780,319.667 89.886 C 319.667 91.058,319.702 91.207,320.000 91.285 C 320.282 91.359,320.333 91.512,320.333 92.285 C 320.333 93.058,320.385 93.211,320.667 93.285 C 320.919 93.351,321.000 93.512,321.000 93.952 C 321.000 94.391,321.081 94.552,321.333 94.618 C 321.552 94.676,321.667 94.846,321.667 95.114 C 321.667 95.655,321.953 96.167,322.256 96.167 C 322.390 96.167,322.500 96.317,322.500 96.500 C 322.500 96.722,322.611 96.833,322.833 96.833 C 323.111 96.833,323.167 96.944,323.167 97.500 C 323.167 98.056,323.222 98.167,323.500 98.167 C 323.722 98.167,323.833 98.278,323.833 98.500 C 323.833 98.722,323.944 98.833,324.167 98.833 C 324.389 98.833,324.500 98.944,324.500 99.167 C 324.500 99.389,324.611 99.500,324.833 99.500 C 325.061 99.500,325.167 99.611,325.167 99.849 C 325.167 100.058,325.301 100.233,325.500 100.285 C 325.683 100.333,325.833 100.483,325.833 100.618 C 325.833 100.754,325.983 100.904,326.167 100.952 C 326.350 101.000,326.500 101.144,326.500 101.274 C 326.500 101.403,326.688 101.580,326.917 101.667 C 327.146 101.754,327.333 101.939,327.333 102.079 C 327.333 102.222,327.479 102.333,327.667 102.333 C 327.889 102.333,328.000 102.444,328.000 102.667 C 328.000 102.944,328.111 103.000,328.667 103.000 C 329.222 103.000,329.333 103.056,329.333 103.333 C 329.333 103.556,329.444 103.667,329.667 103.667 C 329.889 103.667,330.000 103.778,330.000 104.000 C 330.000 104.278,330.111 104.333,330.667 104.333 C 331.209 104.333,331.333 104.392,331.333 104.648 C 331.333 104.893,331.499 104.987,332.083 105.075 C 332.540 105.143,332.833 105.274,332.833 105.409 C 332.833 105.705,333.210 105.833,334.078 105.833 C 334.654 105.833,334.811 105.899,334.882 106.167 C 334.960 106.465,335.109 106.500,336.318 106.500 C 337.556 106.500,337.667 106.527,337.667 106.833 C 337.667 107.149,337.778 107.167,339.773 107.167 C 341.587 107.167,341.910 107.207,342.093 107.458 C 342.275 107.707,342.591 107.750,344.248 107.750 C 345.923 107.750,346.212 107.710,346.353 107.458 C 346.497 107.201,346.808 107.167,348.995 107.167 C 351.603 107.167,352.000 107.109,352.000 106.732 C 352.000 106.556,352.281 106.500,353.167 106.500 C 354.111 106.500,354.397 106.437,354.667 106.167 C 354.873 105.960,355.222 105.833,355.583 105.833 C 355.904 105.833,356.167 105.767,356.167 105.686 C 356.167 105.469,357.232 105.000,357.722 105.000 C 357.998 105.000,358.181 104.884,358.250 104.667 C 358.329 104.416,358.502 104.333,358.944 104.333 C 359.391 104.333,359.552 104.254,359.618 104.000 C 359.667 103.816,359.846 103.667,360.019 103.667 C 360.222 103.667,360.333 103.549,360.333 103.333 C 360.333 103.062,360.444 103.000,360.932 103.000 C 361.391 103.000,361.552 102.922,361.618 102.667 C 361.667 102.482,361.846 102.333,362.019 102.333 C 362.222 102.333,362.333 102.215,362.333 102.000 C 362.333 101.773,362.444 101.667,362.682 101.667 C 362.885 101.667,363.066 101.534,363.114 101.349 C 363.160 101.174,363.341 100.993,363.515 100.948 C 363.690 100.902,363.833 100.754,363.833 100.618 C 363.833 100.483,363.983 100.333,364.167 100.285 C 364.366 100.233,364.500 100.058,364.500 99.849 C 364.500 99.611,364.606 99.500,364.833 99.500 C 365.056 99.500,365.167 99.389,365.167 99.167 C 365.167 98.944,365.278 98.833,365.500 98.833 C 365.778 98.833,365.833 98.722,365.833 98.167 C 365.833 97.611,365.889 97.500,366.167 97.500 C 366.382 97.500,366.500 97.389,366.500 97.186 C 366.500 97.012,366.649 96.833,366.833 96.785 C 367.086 96.719,367.167 96.558,367.167 96.118 C 367.167 95.682,367.248 95.518,367.495 95.453 C 367.729 95.392,367.856 95.169,367.933 94.683 C 367.994 94.301,368.135 94.000,368.253 94.000 C 368.539 94.000,368.667 93.614,368.667 92.756 C 368.667 92.179,368.732 92.022,369.000 91.952 C 369.298 91.874,369.333 91.724,369.333 90.535 C 369.333 89.346,369.368 89.196,369.667 89.118 C 369.992 89.033,370.000 88.891,370.000 83.333 C 370.000 77.776,369.992 77.633,369.667 77.548 C 369.369 77.470,369.333 77.321,369.333 76.147 C 369.333 74.944,369.305 74.833,369.000 74.833 C 368.707 74.833,368.667 74.722,368.667 73.926 C 368.667 73.221,368.595 72.969,368.348 72.795 C 368.172 72.673,367.976 72.293,367.912 71.953 C 367.827 71.498,367.713 71.333,367.481 71.333 C 367.225 71.333,367.167 71.209,367.167 70.667 C 367.167 70.111,367.111 70.000,366.833 70.000 C 366.611 70.000,366.500 69.889,366.500 69.667 C 366.500 69.444,366.389 69.333,366.167 69.333 C 365.888 69.333,365.833 69.222,365.833 68.651 C 365.833 68.109,365.765 67.951,365.500 67.882 C 365.316 67.833,365.167 67.654,365.167 67.481 C 365.167 67.278,365.049 67.167,364.833 67.167 C 364.611 67.167,364.500 67.056,364.500 66.833 C 364.500 66.611,364.389 66.500,364.167 66.500 C 363.944 66.500,363.833 66.389,363.833 66.167 C 363.833 65.951,363.722 65.833,363.519 65.833 C 363.346 65.833,363.167 65.684,363.118 65.500 C 363.066 65.301,362.891 65.167,362.682 65.167 C 362.444 65.167,362.333 65.061,362.333 64.833 C 362.333 64.611,362.222 64.500,362.000 64.500 C 361.778 64.500,361.667 64.389,361.667 64.167 C 361.667 63.951,361.556 63.833,361.353 63.833 C 361.180 63.833,361.001 63.688,360.955 63.511 C 360.900 63.301,360.666 63.150,360.284 63.079 C 359.905 63.008,359.668 62.856,359.614 62.651 C 359.553 62.415,359.382 62.333,358.952 62.333 C 358.512 62.333,358.351 62.253,358.285 62.000 C 358.216 61.735,358.058 61.667,357.516 61.667 C 356.944 61.667,356.833 61.612,356.833 61.333 C 356.833 61.057,356.722 61.000,356.186 61.000 C 355.679 61.000,355.520 60.928,355.452 60.667 C 355.377 60.383,355.224 60.333,354.417 60.333 C 353.609 60.333,353.456 60.284,353.382 60.000 C 353.304 59.703,353.154 59.667,352.000 59.667 C 350.846 59.667,350.696 59.631,350.618 59.333 C 350.533 59.008,350.391 59.000,344.500 59.000 C 338.609 59.000,338.467 59.008,338.382 59.333 M38.547 63.226 C 38.636 63.491,38.944 63.535,38.944 63.282 C 38.944 63.158,38.842 63.056,38.718 63.056 C 38.593 63.056,38.516 63.132,38.547 63.226 M246.583 71.000 C 246.666 71.259,246.836 71.333,247.345 71.333 C 247.889 71.333,248.000 71.390,248.000 71.667 C 248.000 71.889,248.111 72.000,248.333 72.000 C 248.527 72.000,248.667 72.111,248.667 72.266 C 248.667 72.412,248.817 72.570,249.000 72.618 C 249.184 72.667,249.333 72.846,249.333 73.019 C 249.333 73.222,249.451 73.333,249.667 73.333 C 249.889 73.333,250.000 73.444,250.000 73.667 C 250.000 73.889,250.111 74.000,250.333 74.000 C 250.622 74.000,250.667 74.111,250.667 74.835 C 250.667 75.464,250.749 75.740,251.000 75.955 C 251.262 76.180,251.333 76.447,251.333 77.204 L 251.333 78.167 244.083 78.167 L 236.833 78.167 236.833 77.186 C 236.833 76.346,236.881 76.193,237.167 76.118 C 237.426 76.050,237.501 75.890,237.502 75.391 C 237.506 74.428,237.665 74.000,238.019 74.000 C 238.216 74.000,238.333 73.882,238.333 73.686 C 238.333 73.512,238.482 73.333,238.667 73.285 C 238.850 73.237,239.000 73.078,239.000 72.932 C 239.000 72.786,239.120 72.667,239.266 72.667 C 239.412 72.667,239.570 72.517,239.618 72.333 C 239.667 72.149,239.846 72.000,240.019 72.000 C 240.222 72.000,240.333 71.882,240.333 71.667 C 240.333 71.389,240.444 71.333,241.000 71.333 C 241.556 71.333,241.667 71.278,241.667 71.000 C 241.667 70.682,241.778 70.667,244.072 70.667 C 246.331 70.667,246.484 70.687,246.583 71.000 M138.479 71.208 C 138.304 71.535,138.311 71.557,138.530 71.376 C 138.668 71.263,138.818 71.206,138.863 71.251 C 138.908 71.296,138.944 71.221,138.944 71.083 C 138.944 70.715,138.707 70.779,138.479 71.208 M29.531 72.135 C 29.388 72.232,29.331 72.561,29.365 73.099 L 29.417 73.917 30.792 73.965 C 31.999 74.008,32.167 74.051,32.167 74.321 C 32.167 74.718,32.608 74.828,34.208 74.831 C 35.200 74.833,35.500 74.887,35.500 75.066 C 35.500 75.373,35.869 75.500,36.764 75.500 C 37.278 75.500,37.601 75.601,37.833 75.833 C 38.098 76.098,38.389 76.167,39.250 76.167 C 40.111 76.167,40.402 76.235,40.667 76.500 C 40.932 76.765,41.222 76.833,42.083 76.833 C 42.898 76.833,43.167 76.891,43.167 77.066 C 43.167 77.398,43.545 77.500,44.779 77.500 C 45.724 77.500,45.876 77.543,45.952 77.833 C 46.030 78.131,46.179 78.167,47.353 78.167 C 48.556 78.167,48.667 78.195,48.667 78.500 C 48.667 78.805,48.778 78.833,49.981 78.833 C 51.118 78.833,51.305 78.875,51.375 79.141 C 51.456 79.449,52.112 79.667,52.961 79.667 C 53.191 79.667,53.468 79.787,53.575 79.934 C 53.687 80.087,54.120 80.240,54.593 80.292 C 55.127 80.352,55.493 80.493,55.634 80.692 C 55.813 80.944,56.076 81.000,57.093 81.000 C 58.222 81.000,58.333 81.030,58.333 81.333 C 58.333 81.629,58.444 81.667,59.314 81.667 C 60.154 81.667,60.307 81.714,60.382 82.000 C 60.457 82.287,60.609 82.333,61.484 82.333 C 62.389 82.333,62.500 82.370,62.500 82.667 C 62.500 82.962,62.611 83.000,63.481 83.000 C 64.321 83.000,64.474 83.048,64.548 83.333 C 64.623 83.617,64.776 83.667,65.583 83.667 C 66.391 83.667,66.544 83.716,66.618 84.000 C 66.693 84.286,66.846 84.333,67.686 84.333 C 68.537 84.333,68.667 84.375,68.667 84.649 C 68.667 84.993,68.975 85.167,69.589 85.167 C 69.806 85.167,70.053 85.291,70.138 85.443 C 70.244 85.632,70.590 85.744,71.230 85.797 C 72.007 85.861,72.167 85.928,72.167 86.187 C 72.167 86.458,72.300 86.500,73.167 86.500 C 74.056 86.500,74.167 86.537,74.167 86.833 C 74.167 87.109,74.278 87.167,74.814 87.167 C 75.321 87.167,75.480 87.239,75.548 87.500 C 75.616 87.761,75.776 87.833,76.278 87.833 C 76.739 87.833,76.978 87.927,77.128 88.167 C 77.291 88.428,77.517 88.500,78.168 88.500 C 78.889 88.500,79.000 88.545,79.000 88.833 C 79.000 89.111,79.111 89.167,79.667 89.167 C 80.210 89.167,80.333 89.225,80.333 89.482 C 80.333 89.825,80.642 90.000,81.244 90.000 C 81.488 90.000,81.660 90.122,81.715 90.333 C 81.767 90.533,81.942 90.667,82.151 90.667 C 82.349 90.667,82.500 90.774,82.500 90.915 C 82.500 91.074,82.733 91.200,83.152 91.267 C 83.596 91.338,83.831 91.472,83.887 91.686 C 83.948 91.920,84.121 92.000,84.568 92.000 C 85.056 92.000,85.167 92.062,85.167 92.333 C 85.167 92.573,85.278 92.667,85.564 92.667 C 85.821 92.667,85.992 92.784,86.048 93.000 C 86.112 93.245,86.276 93.333,86.667 93.333 C 87.058 93.333,87.221 93.421,87.285 93.667 C 87.333 93.851,87.512 94.000,87.686 94.000 C 87.889 94.000,88.000 94.118,88.000 94.333 C 88.000 94.556,88.111 94.667,88.333 94.667 C 88.556 94.667,88.667 94.778,88.667 95.000 C 88.667 95.222,88.778 95.333,89.000 95.333 C 89.194 95.333,89.333 95.444,89.333 95.599 C 89.333 95.745,89.483 95.904,89.667 95.952 C 89.850 96.000,90.000 96.138,90.000 96.260 C 90.000 96.382,90.136 96.579,90.303 96.699 C 90.469 96.819,90.654 97.048,90.714 97.208 C 90.774 97.369,90.929 97.500,91.059 97.500 C 91.188 97.500,91.334 97.650,91.382 97.833 C 91.430 98.017,91.588 98.167,91.734 98.167 C 91.904 98.167,92.000 98.312,92.000 98.570 C 92.000 99.191,92.172 99.500,92.518 99.500 C 92.811 99.500,92.833 99.650,92.833 101.583 C 92.833 103.549,92.815 103.667,92.503 103.667 C 92.290 103.667,92.136 103.814,92.068 104.083 C 92.011 104.313,91.859 104.500,91.732 104.500 C 91.604 104.500,91.500 104.645,91.500 104.822 C 91.500 104.999,91.350 105.192,91.167 105.250 C 90.983 105.308,90.833 105.463,90.833 105.595 C 90.833 105.726,90.721 105.833,90.585 105.833 C 90.448 105.833,90.242 105.983,90.128 106.167 C 90.013 106.350,89.788 106.500,89.627 106.500 C 89.444 106.500,89.333 106.626,89.333 106.833 C 89.333 107.105,89.222 107.167,88.734 107.167 C 88.276 107.167,88.115 107.245,88.048 107.500 C 87.980 107.760,87.821 107.833,87.325 107.833 C 86.836 107.833,86.665 107.910,86.583 108.167 C 86.494 108.447,86.331 108.500,85.556 108.500 C 84.776 108.500,84.622 108.551,84.548 108.833 C 84.470 109.134,84.320 109.167,83.022 109.168 C 80.812 109.170,79.859 109.322,79.743 109.689 C 79.591 110.168,71.417 110.171,71.292 109.692 C 71.187 109.292,70.277 109.167,67.477 109.167 C 65.556 109.167,65.299 109.132,65.000 108.833 C 64.707 108.540,64.444 108.500,62.833 108.500 C 61.377 108.500,61.000 108.452,61.000 108.268 C 61.000 107.917,60.614 107.833,58.986 107.833 C 57.611 107.833,57.500 107.808,57.500 107.500 C 57.500 107.195,57.389 107.167,56.186 107.167 C 55.012 107.167,54.863 107.131,54.785 106.833 C 54.710 106.546,54.558 106.500,53.682 106.500 C 52.778 106.500,52.667 106.464,52.667 106.167 C 52.667 105.861,52.556 105.833,51.333 105.833 C 50.111 105.833,50.000 105.806,50.000 105.500 C 50.000 105.205,49.889 105.167,49.040 105.167 C 48.203 105.167,48.058 105.118,47.915 104.792 C 47.794 104.516,47.584 104.403,47.125 104.365 C 46.741 104.333,46.500 104.227,46.500 104.091 C 46.500 103.823,46.135 103.667,45.512 103.667 C 45.259 103.667,44.916 103.517,44.750 103.333 C 44.584 103.150,44.319 103.000,44.160 103.000 C 44.002 103.000,43.832 102.846,43.783 102.658 C 43.703 102.355,43.584 102.322,42.722 102.366 L 41.750 102.417 41.707 118.480 L 41.665 134.544 42.091 134.938 C 42.464 135.284,42.680 135.333,43.822 135.333 C 44.952 135.333,45.139 135.375,45.208 135.641 C 45.300 135.991,45.960 136.167,47.179 136.167 C 47.772 136.167,48.026 136.243,48.147 136.458 C 48.287 136.709,48.627 136.758,50.556 136.808 C 52.598 136.860,52.810 136.894,52.886 137.183 C 52.963 137.478,53.154 137.500,55.651 137.500 C 57.833 137.500,58.333 137.543,58.333 137.732 C 58.333 138.151,58.753 138.167,69.863 138.167 C 80.724 138.167,80.866 138.162,80.952 137.833 C 81.034 137.518,81.179 137.500,83.702 137.500 C 86.224 137.500,86.369 137.482,86.452 137.167 C 86.532 136.859,86.679 136.833,88.339 136.833 C 90.276 136.833,90.667 136.760,90.667 136.399 C 90.667 136.225,90.930 136.166,91.708 136.165 C 93.332 136.162,94.000 136.010,94.000 135.645 C 94.000 135.365,94.144 135.333,95.417 135.333 C 96.722 135.333,96.833 135.307,96.833 135.000 C 96.833 134.701,96.944 134.667,97.903 134.667 C 99.122 134.667,99.500 134.564,99.500 134.232 C 99.500 134.059,99.759 134.000,100.516 134.000 C 101.391 134.000,101.543 133.954,101.618 133.667 C 101.693 133.382,101.846 133.333,102.667 133.333 C 103.488 133.333,103.641 133.285,103.715 133.000 C 103.782 132.743,103.942 132.667,104.417 132.667 C 104.878 132.667,105.052 132.589,105.113 132.353 C 105.176 132.113,105.394 132.021,106.042 131.958 C 106.535 131.911,106.968 131.769,107.078 131.619 C 107.182 131.477,107.544 131.309,107.883 131.245 C 108.222 131.182,108.500 131.034,108.500 130.916 C 108.500 130.799,108.688 130.656,108.917 130.598 C 109.186 130.531,109.333 130.377,109.333 130.163 C 109.333 129.889,109.447 129.833,110.000 129.833 C 110.556 129.833,110.667 129.778,110.667 129.500 C 110.667 129.222,110.778 129.167,111.333 129.167 C 111.889 129.167,112.000 129.111,112.000 128.833 C 112.000 128.556,112.111 128.500,112.667 128.500 C 113.153 128.500,113.333 128.431,113.333 128.246 C 113.333 128.106,113.521 127.920,113.750 127.833 C 113.979 127.746,114.167 127.561,114.167 127.421 C 114.167 127.278,114.312 127.167,114.500 127.167 C 114.716 127.167,114.833 127.056,114.833 126.852 C 114.833 126.624,114.994 126.507,115.415 126.428 C 115.739 126.367,116.073 126.175,116.171 125.993 C 116.267 125.813,116.455 125.667,116.589 125.667 C 116.723 125.667,116.833 125.517,116.833 125.333 C 116.833 125.111,116.944 125.000,117.167 125.000 C 117.389 125.000,117.500 124.889,117.500 124.667 C 117.500 124.448,117.611 124.333,117.822 124.333 C 117.999 124.333,118.192 124.183,118.250 124.000 C 118.308 123.817,118.463 123.667,118.595 123.667 C 118.726 123.667,118.833 123.591,118.833 123.499 C 118.833 123.407,119.021 123.168,119.250 122.969 C 119.510 122.743,119.667 122.430,119.667 122.137 C 119.667 121.778,119.745 121.667,120.000 121.667 C 120.218 121.667,120.333 121.556,120.333 121.345 C 120.333 121.167,120.483 120.975,120.667 120.917 C 120.926 120.834,121.000 120.664,121.000 120.155 C 121.000 119.611,121.057 119.500,121.333 119.500 C 121.554 119.500,121.667 119.389,121.667 119.173 C 121.667 118.992,121.817 118.765,122.000 118.667 C 122.265 118.525,122.333 118.318,122.333 117.661 C 122.333 117.030,122.394 116.833,122.587 116.833 C 122.971 116.833,123.167 116.118,123.167 114.716 C 123.167 113.717,123.226 113.410,123.452 113.245 C 124.004 112.841,123.887 109.500,123.320 109.500 C 123.236 109.500,123.167 108.944,123.167 108.264 C 123.167 106.811,123.075 106.500,122.649 106.500 C 122.374 106.500,122.333 106.370,122.333 105.500 C 122.333 104.611,122.296 104.500,122.000 104.500 C 121.759 104.500,121.667 104.389,121.667 104.097 C 121.667 103.522,121.501 103.167,121.232 103.167 C 121.096 103.167,121.000 102.995,121.000 102.750 C 121.000 102.444,120.911 102.333,120.667 102.333 C 120.395 102.333,120.333 102.222,120.333 101.734 C 120.333 101.276,120.255 101.115,120.000 101.048 C 119.816 101.000,119.667 100.821,119.667 100.647 C 119.667 100.444,119.549 100.333,119.333 100.333 C 119.111 100.333,119.000 100.222,119.000 100.000 C 119.000 99.782,118.889 99.667,118.678 99.667 C 118.471 99.667,118.337 99.533,118.303 99.292 C 118.269 99.051,118.116 98.898,117.875 98.863 C 117.634 98.829,117.500 98.695,117.500 98.488 C 117.500 98.278,117.385 98.167,117.167 98.167 C 116.944 98.167,116.833 98.056,116.833 97.833 C 116.833 97.611,116.722 97.500,116.500 97.500 C 116.278 97.500,116.167 97.389,116.167 97.167 C 116.167 96.944,116.056 96.833,115.833 96.833 C 115.611 96.833,115.500 96.722,115.500 96.500 C 115.500 96.278,115.389 96.167,115.167 96.167 C 114.944 96.167,114.833 96.056,114.833 95.833 C 114.833 95.611,114.722 95.500,114.500 95.500 C 114.278 95.500,114.167 95.389,114.167 95.167 C 114.167 94.927,114.056 94.833,113.769 94.833 C 113.517 94.833,113.342 94.716,113.288 94.511 C 113.232 94.299,112.998 94.150,112.602 94.076 C 112.163 93.993,112.000 93.878,112.000 93.648 C 112.000 93.451,111.883 93.333,111.686 93.333 C 111.512 93.333,111.333 93.184,111.285 93.000 C 111.218 92.745,111.058 92.667,110.599 92.667 C 110.111 92.667,110.000 92.605,110.000 92.333 C 110.000 92.115,109.889 92.000,109.678 92.000 C 109.501 92.000,109.308 91.850,109.250 91.667 C 109.171 91.416,108.998 91.333,108.556 91.333 C 108.109 91.333,107.948 91.254,107.882 91.000 C 107.813 90.739,107.654 90.667,107.147 90.667 C 106.611 90.667,106.500 90.609,106.500 90.333 C 106.500 90.056,106.389 90.000,105.833 90.000 C 105.279 90.000,105.167 89.944,105.167 89.669 C 105.167 89.412,105.019 89.314,104.514 89.233 C 104.070 89.162,103.836 89.028,103.780 88.814 C 103.716 88.571,103.544 88.500,103.016 88.500 C 102.444 88.500,102.333 88.446,102.333 88.167 C 102.333 87.889,102.222 87.833,101.667 87.833 C 101.111 87.833,101.000 87.778,101.000 87.500 C 101.000 87.224,100.889 87.167,100.353 87.167 C 99.846 87.167,99.687 87.094,99.618 86.833 C 99.549 86.568,99.391 86.500,98.849 86.500 C 98.389 86.500,98.058 86.391,97.833 86.167 C 97.611 85.944,97.278 85.833,96.833 85.833 C 96.278 85.833,96.167 85.778,96.167 85.500 C 96.167 85.204,96.056 85.167,95.167 85.167 C 94.278 85.167,94.167 85.130,94.167 84.833 C 94.167 84.535,94.056 84.500,93.095 84.500 C 92.110 84.500,92.019 84.469,91.970 84.125 C 91.928 83.832,91.791 83.738,91.342 83.695 C 91.026 83.665,90.684 83.526,90.582 83.387 C 90.480 83.247,90.026 83.092,89.573 83.041 C 89.040 82.982,88.673 82.841,88.532 82.641 C 88.366 82.406,88.100 82.333,87.407 82.333 C 86.743 82.333,86.500 82.271,86.500 82.101 C 86.500 81.771,86.122 81.667,84.922 81.667 C 84.012 81.667,83.861 81.622,83.785 81.333 C 83.710 81.046,83.558 81.000,82.682 81.000 C 81.889 81.000,81.594 80.927,81.333 80.667 C 81.073 80.406,80.778 80.333,79.984 80.333 C 79.109 80.333,78.957 80.287,78.882 80.000 C 78.804 79.703,78.654 79.667,77.500 79.667 C 76.365 79.667,76.195 79.627,76.122 79.348 C 76.039 79.032,74.709 78.731,73.708 78.803 C 73.489 78.818,73.333 78.735,73.333 78.601 C 73.333 78.285,72.801 78.172,71.311 78.169 C 70.180 78.167,70.029 78.130,69.952 77.833 C 69.873 77.533,69.724 77.500,68.432 77.500 C 67.589 77.500,67.000 77.432,67.000 77.333 C 67.000 77.242,66.921 77.167,66.823 77.167 C 66.726 77.167,66.701 77.260,66.767 77.375 C 66.837 77.496,66.823 77.525,66.735 77.444 C 66.652 77.368,66.583 77.218,66.583 77.111 C 66.583 76.979,66.034 76.901,64.858 76.869 C 63.305 76.826,63.124 76.789,63.047 76.494 C 62.968 76.192,62.809 76.167,61.000 76.167 C 59.179 76.167,59.033 76.143,58.952 75.833 C 58.871 75.523,58.724 75.500,56.868 75.500 C 55.012 75.500,54.866 75.477,54.785 75.167 C 54.703 74.853,54.558 74.833,52.368 74.833 C 50.179 74.833,50.034 74.813,49.952 74.500 C 49.871 74.190,49.724 74.167,47.869 74.167 C 45.992 74.167,45.859 74.145,45.628 73.796 C 45.393 73.442,45.257 73.423,42.486 73.360 C 40.054 73.304,39.559 73.250,39.392 73.022 C 39.225 72.793,38.743 72.742,36.315 72.697 C 33.850 72.652,33.407 72.604,33.232 72.364 C 33.002 72.048,29.942 71.860,29.531 72.135 M345.882 72.333 C 345.950 72.596,346.109 72.667,346.632 72.667 C 347.154 72.667,347.313 72.737,347.382 73.000 C 347.448 73.255,347.609 73.333,348.068 73.333 C 348.556 73.333,348.667 73.395,348.667 73.667 C 348.667 73.889,348.778 74.000,349.000 74.000 C 349.227 74.000,349.333 74.111,349.333 74.349 C 349.333 74.558,349.467 74.733,349.667 74.785 C 349.919 74.851,350.000 75.012,350.000 75.452 C 350.000 75.891,350.081 76.052,350.333 76.118 C 350.594 76.187,350.667 76.346,350.667 76.853 C 350.667 77.389,350.724 77.500,351.000 77.500 C 351.302 77.500,351.333 77.611,351.333 78.668 C 351.333 79.630,351.392 79.887,351.667 80.122 C 351.977 80.388,352.000 80.614,352.000 83.434 C 352.000 86.321,351.985 86.465,351.667 86.548 C 351.368 86.626,351.333 86.776,351.333 87.984 C 351.333 89.222,351.306 89.333,351.000 89.333 C 350.722 89.333,350.667 89.444,350.667 90.000 C 350.667 90.556,350.611 90.667,350.333 90.667 C 350.118 90.667,350.000 90.778,350.000 90.981 C 350.000 91.154,349.851 91.333,349.667 91.382 C 349.411 91.448,349.333 91.609,349.333 92.068 C 349.333 92.595,349.284 92.667,348.917 92.667 C 348.688 92.667,348.350 92.817,348.167 93.000 C 347.983 93.183,347.721 93.333,347.583 93.333 C 347.446 93.333,347.333 93.474,347.333 93.645 C 347.333 93.902,347.159 93.977,346.342 94.069 C 345.563 94.157,345.329 94.251,345.248 94.507 C 345.102 94.967,343.901 94.977,343.756 94.520 C 343.655 94.200,343.034 94.000,342.146 94.000 C 341.778 94.000,341.667 93.923,341.667 93.667 C 341.667 93.444,341.556 93.333,341.333 93.333 C 341.150 93.333,341.000 93.229,341.000 93.101 C 341.000 92.832,340.645 92.667,340.070 92.667 C 339.718 92.667,339.667 92.590,339.667 92.068 C 339.667 91.609,339.589 91.448,339.333 91.382 C 339.149 91.333,339.000 91.154,339.000 90.981 C 339.000 90.778,338.882 90.667,338.667 90.667 C 338.390 90.667,338.333 90.556,338.333 90.012 C 338.333 89.459,338.275 89.348,337.958 89.303 C 337.612 89.254,337.580 89.153,337.535 87.967 C 337.493 86.864,337.441 86.670,337.160 86.581 C 336.646 86.418,336.653 79.683,337.167 79.548 C 337.452 79.474,337.500 79.321,337.500 78.481 C 337.500 77.630,337.542 77.500,337.816 77.500 C 338.158 77.500,338.333 77.192,338.333 76.589 C 338.333 76.346,338.455 76.174,338.667 76.118 C 338.919 76.052,339.000 75.891,339.000 75.452 C 339.000 75.012,339.081 74.851,339.333 74.785 C 339.533 74.733,339.667 74.558,339.667 74.349 C 339.667 74.111,339.773 74.000,340.000 74.000 C 340.222 74.000,340.333 73.889,340.333 73.667 C 340.333 73.395,340.444 73.333,340.932 73.333 C 341.391 73.333,341.552 73.255,341.618 73.000 C 341.687 72.739,341.846 72.667,342.353 72.667 C 342.889 72.667,343.000 72.609,343.000 72.333 C 343.000 72.027,343.111 72.000,344.397 72.000 C 345.654 72.000,345.803 72.033,345.882 72.333 M83.667 73.672 C 83.667 73.761,83.746 73.833,83.843 73.833 C 83.940 73.833,83.981 73.896,83.934 73.972 C 83.887 74.049,83.950 74.111,84.075 74.111 C 84.200 74.111,84.265 74.017,84.221 73.902 C 84.121 73.641,83.667 73.452,83.667 73.672 M66.208 76.374 C 66.236 76.457,66.330 76.525,66.417 76.525 C 66.504 76.525,66.598 76.457,66.625 76.374 C 66.653 76.290,66.559 76.222,66.417 76.222 C 66.274 76.222,66.180 76.290,66.208 76.374 M101.056 79.384 C 101.056 79.509,101.158 79.611,101.282 79.611 C 101.535 79.611,101.491 79.303,101.226 79.214 C 101.132 79.183,101.056 79.259,101.056 79.384 M85.498 81.248 C 85.612 81.385,85.779 81.450,85.870 81.394 C 85.971 81.332,85.947 81.235,85.809 81.148 C 85.450 80.921,85.274 80.977,85.498 81.248 M93.047 82.559 C 93.136 82.825,93.444 82.869,93.444 82.616 C 93.444 82.491,93.342 82.389,93.218 82.389 C 93.093 82.389,93.016 82.465,93.047 82.559 M102.047 83.892 C 102.136 84.158,102.444 84.202,102.444 83.949 C 102.444 83.824,102.342 83.722,102.218 83.722 C 102.093 83.722,102.016 83.799,102.047 83.892 M123.067 85.655 C 123.087 85.936,123.029 86.167,122.940 86.167 C 122.851 86.167,122.817 86.206,122.865 86.254 C 123.001 86.390,123.465 86.166,123.559 85.919 C 123.606 85.798,123.506 85.573,123.338 85.421 C 123.047 85.157,123.033 85.169,123.067 85.655 M218.333 103.486 C 218.333 103.691,218.441 103.833,218.596 103.833 C 218.751 103.833,218.836 103.720,218.804 103.555 C 218.723 103.137,218.333 103.080,218.333 103.486 M284.553 106.125 C 282.611 106.151,279.386 106.151,277.386 106.125 C 275.386 106.098,276.975 106.076,280.917 106.076 C 284.858 106.076,286.495 106.098,284.553 106.125 M317.875 106.125 C 315.652 106.151,312.015 106.151,309.792 106.125 C 307.569 106.099,309.387 106.077,313.833 106.077 C 318.279 106.077,320.098 106.099,317.875 106.125 M213.240 106.683 C 213.197 106.753,213.237 106.857,213.331 106.915 C 213.518 107.031,213.833 106.886,213.833 106.685 C 213.833 106.518,213.343 106.516,213.240 106.683 M166.421 107.301 C 166.378 107.344,166.380 107.441,166.427 107.516 C 166.522 107.671,167.000 107.527,167.000 107.343 C 167.000 107.209,166.546 107.176,166.421 107.301 " stroke="none" fill="#16a34a" fill-rule="evenodd"></path></g></svg>